<svg id="Layer_1" data-name="Layer 1" xmlns="http://www.w3.org/2000/svg" viewBox="0 0 473.36 569.99"><defs><style>.cls-1{fill:#fff;}</style></defs><path class="cls-1" d="M803.49,687.3c-.47,3.63-2.62,8.87-5.36,11a16.25,16.25,0,0,1-13.14,3,11.93,11.93,0,0,1-8.31-5.79C772.62,688,774,678.93,774,670.77a187.79,187.79,0,0,0-1.7-25.85,142.58,142.58,0,0,0-13.28-44.63,109.83,109.83,0,0,0-16-23.82c-18.92-21.28-47.08-32.9-76.78-32.9a117.31,117.31,0,0,0-32.77,4.73c-36.43,10.7-51.88,23.47-68.8,57,0,0-.22.58-.58,1.56-1.11,3-4.07,11-6.71,18.08a14.87,14.87,0,0,1-25.85,3.41,14.33,14.33,0,0,1-2-13.05c4.76-14.33,15.38-41.07,32.89-59.24a140.45,140.45,0,0,1,71.85-39.24,144.44,144.44,0,0,1,85,8c25.79,10.95,47.92,29.67,62.28,52.66,17.64,28.11,21.15,61.68,22.28,93.75a98.07,98.07,0,0,1-.3,16.07" transform="translate(-330.61 -131.64)"/><path class="cls-1" d="M723.68,438.86c-32.68,6.95-55.57-35.95-31-59.94,15.84-15.48,41.25-10.85,52.69,6.3,13.16,19.73,2.1,48.59-21.66,53.64" transform="translate(-330.61 -131.64)"/><path class="cls-1" d="M437,476.48c.3,16.14-21.69,23.33-30.64,9.6-5.76-8.87-.31-19.07,8.69-23,10.34-4.56,21.74,1.71,21.95,13.44" transform="translate(-330.61 -131.64)"/><path class="cls-1" d="M681.12,251.89c14.41,13.58,22.26,30.31,30,48.1,3.26,7.51,8.12,20.21,6.48,28.68-.85,4.32-7.32,5.83-10.9,4.58-12.62-4.4-13.73-23.06-16.41-33.8-3.8-15.19-14.62-27.89-27.93-36a66,66,0,0,0-21.7-8.55c-7.11-1.33-23.71,1.67-25-9.21-1.46-12.7,20.9-13,28.73-11.29,13.06,2.81,27.65,8.89,36.73,17.45" transform="translate(-330.61 -131.64)"/><path class="cls-1" d="M330.85,238.88c0,1.87.5,4.2,2.54,4.72,2.23.55,4-1.62,4.82-3.53,2.22-5.35,2.48-11.19,4.29-16.67,3.53-10.71,6.71-22.26,13.56-31.45s17.28-14.5,27.49-19.19c10.56-4.84,20.12-9.4,28.14-17.95,4.29-4.58,7.88-10.15,6.92-16.62-2.4-16.13-23.16,2.22-28.63,5.31a3.86,3.86,0,0,1-2.32.7c-3.31-.44-.08-8.25-1.47-10.27-3-4.3-10.25-.53-13.42,1.54-2.72,1.78-4.93,4.33-7.91,5.72-4.94,2.29-5.56-.71-7.38-4.53-1.56-3.29-6-5-10-4.59a16.17,16.17,0,0,0-9.95,5.52c-6.29,7-6.89,16.86-5.64,25.82,1.28,9.13,5.19,19.06,4.42,28.28-.89,10.74-5.57,36.11-5.43,47.19" transform="translate(-330.61 -131.64)"/><path class="cls-1" d="M803.79,362.68c0,2.4.29,10.67-5,11.16-4,.38-14,1-19.09.77-8-.29-10.4,1.05-10.72-6.19-.44-10.58.4-25.65.34-36-.08-14.31-.43-28.59-.85-42.87-.8-28-7.32-59-28-79.84a78.44,78.44,0,0,0-41.3-21.34c-20.77-3.78-41,3.41-61,7.93-14.36,3.25-29.93,3-41-7.81a53.45,53.45,0,0,1-9.85-14.17c-2.54-4.95-4.3-10.69-7.82-15-3.66-4.53-8.78-7-14.5-8-27.34-4.58-46.54,18.46-70.29,26.41-11,3.67-23.58,4.08-33.92-1.08S443.1,160,445,148.89s14.53-20,25.6-16.48c9.14,2.87,13.75,11.9,21.93,16.13,8.54,4.42,19.28,3.9,28.34,1.43a77.34,77.34,0,0,0,12.71-4.83c11.56-5.4,22.49-12.3,35.63-13.18A31,31,0,0,1,589,137.18c7.77,5.44,10.64,14.51,13.73,22.94,5.35,14.58,17.8,21.89,33.57,18.71,36.7-7.41,69.62-18.24,103.79,4.07C775.82,206.21,797.9,247.43,802,289c2.79,27.84,1.75,45.31,1.75,73.7" transform="translate(-330.61 -131.64)"/><path class="cls-1" d="M584.55,168.87c-.77-1.67-1.49-3.39-2.22-5.18.81,1.69,1.75,4.08,2.22,5.18" transform="translate(-330.61 -131.64)"/><path class="cls-1" d="M562.26,184.53c-.11-.27-.22-.54-.35-.8-3.6-7.67-13.5-10.17-21.1-7.28-5.47,2.08-8.54,8.2-8.87,13.72a12.75,12.75,0,0,0,5.63,11.23,14.62,14.62,0,0,0,8.28,2.4c2.24,0,4.62-.59,6.91-.39,6.15.51,8.45,9.78,15.08,8.42a3.61,3.61,0,0,0,2.48-1.71,4.17,4.17,0,0,0,.42-2c-.08-3.32-2.4-6.46-4.34-9-1.33-1.76-3.07-3.14-3.37-5.45-.24-1.76.26-3.52.12-5.29a13.14,13.14,0,0,0-.89-3.81" transform="translate(-330.61 -131.64)"/><path class="cls-1" d="M409.78,657.77c-12.1,0-24.2-.51-36.3-.26-10.34.21-26.2-1.84-34.52,5-9,7.39-10.12,26.65-.57,34,5,3.83,12.19,3.69,18.06,4.42,8,1,18,.7,26.05.65,16.07-.11,30,0,45.88-.11,21.25-.13,50.22-.4,71.46-.48,6.48,0,15.3.74,20.29-4.9A21.33,21.33,0,0,0,525,684.26c.63-5.44-.35-11.28-3.74-15.6-2.91-3.71-7.32-6-11.88-7.22-18.37-4.85-46.84-2.93-65.69-3.33q-16.92-.37-33.86-.34" transform="translate(-330.61 -131.64)"/><path class="cls-1" d="M567.33,649.16c14.84-8.73,32.66-8.26,48.82-3.86,12.8,3.5,25.28,6.42,38.71,2.31a44.71,44.71,0,0,0,7.68-3.12c.57-.3,3-1.83,4.77-3,.84-.57,2.24-.36,2.51.41a17.89,17.89,0,0,1-1.63,15.37c-3.28,5.48-9.73,10.18-17.59,12.42C631.76,675,608,665.92,592,679.06c-6.65,5.49-9.45,14.06-16.73,19.26-9.81,7-23.64,2-28.21-7-7-13.74,6.45-34,20.23-42.14" transform="translate(-330.61 -131.64)"/><path class="cls-1" d="M590.06,626a8.11,8.11,0,0,0,.19,2.41,3.37,3.37,0,0,0,3.07,2.69c2.09.13,4.81-1.15,5.28-3.34.37-1.78-.31-3.59.08-5.38a3.53,3.53,0,0,1,.54-1.28c3.93-5.58,10.7-6.06,16.94-7.25,8.77-1.68,10.53-6.73,17-11.71,15.88-12.13,21.83,13,33.68,17.53,10.29,3.92,15.42-13.39,25.6-8.37,5.19,2.56,11.76,11.89,11.82,17.91.23,25.78-12.23,33.33-12.23,51.75,0,20.36,23.11,26.21,36.8,15.08,17.5-14.24,15.63-52.59,8.27-72.9s-21.85-39.81-42.51-48c-29.58-11.76-64.87-2.93-86.91,20.12a79.28,79.28,0,0,0-6.4,7.65,87.83,87.83,0,0,0-6.22,10,53,53,0,0,0-4.55,10.32,12.47,12.47,0,0,0-.49,2.75" transform="translate(-330.61 -131.64)"/><path class="cls-1" d="M403.34,554.58a29.4,29.4,0,0,1-3.54-4.42c-3.18-4.8-9.95-22-1.06-24.63a5.49,5.49,0,0,1,4.51.93c3.66,2.43,6,7.23,10.78,6.77,7.78-.73,5.4-15,8.09-20.6,2.11-4.42,7.73-7.14,11.87-5.3,5,2.22,3.22,9.88,2.71,14.51a5.49,5.49,0,0,0,0,1.94c.16.62.63,1.17,1.19,1.17a1.69,1.69,0,0,0,1.11-.61c1.86-1.87,1.88-4.89,2.92-7.31,1.65-3.86,5.83-4.18,8.95-3,8.69,3.24,5.64,14.61,2.38,21.45-9.24,19.34-34.22,35.18-49.94,19.11" transform="translate(-330.61 -131.64)"/><path class="cls-1" d="M484.46,505.79a30.58,30.58,0,0,1-3.54-4.42c-3.18-4.8-9.94-22-1.05-24.62a5.44,5.44,0,0,1,4.5.92c3.66,2.43,6,7.23,10.78,6.77,7.78-.73,5.4-15,8.09-20.6,2.11-4.42,7.73-7.14,11.87-5.3,5,2.22,3.22,9.88,2.71,14.51a5.49,5.49,0,0,0,0,1.94c.16.62.63,1.17,1.19,1.17a1.69,1.69,0,0,0,1.11-.61c1.86-1.87,1.89-4.89,2.93-7.32,1.64-3.85,5.82-4.16,8.94-3,8.69,3.24,5.64,14.61,2.38,21.45-9.23,19.34-34.22,35.18-49.94,19.11" transform="translate(-330.61 -131.64)"/><path class="cls-1" d="M501.59,620.29c9.64,3,7.25-7.93,10.76-19S523.92,583,514.28,580s-20.29,3.61-23.8,14.72,1.47,22.55,11.11,25.53" transform="translate(-330.61 -131.64)"/><path class="cls-1" d="M460,631.75v.08c-.07,2.32-3.27,3.28-5,1.56-4.23-4.3-10.79-7.12-18.21-7.26a26.65,26.65,0,0,0-16.67,5.3c-.51.39-1,.79-1.44,1.22a4.25,4.25,0,0,1-5.47.13c-.3-.23-.59-.47-.88-.71a24.88,24.88,0,0,0-4.93-3.18,28,28,0,0,0-11.71-2.76,26.77,26.77,0,0,0-19,7.16c-.7.66-1,1.91-2.25,1.64s-2.31-2.21-3.26-3a23.29,23.29,0,0,0-4.66-3,28.43,28.43,0,0,0-11.95-2.82c-8.13-.16-15.38,2.94-19.74,7.79a2.34,2.34,0,0,1-3.82-.45,6,6,0,0,1-.45-2.63c.23-10.22,11-18.34,24-18.09,7.37.15,13.89,2.94,18.13,7.19a2.7,2.7,0,0,0,3.81,0c4.4-4.49,11.38-7.34,19.16-7.19a28.78,28.78,0,0,1,11.71,2.71,23.51,23.51,0,0,1,6.15,4.55,3.17,3.17,0,0,0,4.37-.08,17.36,17.36,0,0,1,1.94-1.78,24.92,24.92,0,0,1,5.12-3.07,27.82,27.82,0,0,1,11.81-2.33c13,.26,23.4,8.76,23.17,19" transform="translate(-330.61 -131.64)"/><path class="cls-1" d="M460,601.29v.08c-.07,2.31-3.27,3.27-5,1.55-4.23-4.3-10.79-7.12-18.21-7.26A27.22,27.22,0,0,0,425.16,598a26.09,26.09,0,0,0-5,3,18.79,18.79,0,0,0-1.44,1.21,4.25,4.25,0,0,1-5.47.13c-.3-.23-.59-.47-.88-.71a25.34,25.34,0,0,0-4.93-3.18,28.12,28.12,0,0,0-11.71-2.76A27.28,27.28,0,0,0,380,600.25a26.1,26.1,0,0,0-3.23,2.58c-.7.66-1,1.9-2.25,1.63s-2.31-2.21-3.26-3a24.2,24.2,0,0,0-4.66-3,28.43,28.43,0,0,0-11.95-2.82c-8.13-.16-15.38,2.94-19.74,7.79a2.35,2.35,0,0,1-3.82-.44,6,6,0,0,1-.45-2.63c.23-10.23,11-18.35,24-18.09,7.37.15,13.89,2.93,18.13,7.18a2.7,2.7,0,0,0,3.81,0c4.4-4.49,11.38-7.33,19.16-7.18a28.61,28.61,0,0,1,11.71,2.7,23.51,23.51,0,0,1,6.15,4.55,3.17,3.17,0,0,0,4.37-.08,18.37,18.37,0,0,1,1.94-1.78,24.92,24.92,0,0,1,5.12-3.07,27.66,27.66,0,0,1,11.81-2.32c13,.25,23.4,8.75,23.17,19" transform="translate(-330.61 -131.64)"/><path class="cls-1" d="M553.53,525.28c5.56,8.35,10.68-1.6,20.49-8s20.59-6.86,15-15.21-18-9.92-27.83-3.51-13.25,18.38-7.69,26.73" transform="translate(-330.61 -131.64)"/><path class="cls-1" d="M658.35,485.76c-.94,10,9.35,5.37,21,6.46s20.39,7.42,21.33-2.54-7.79-18.91-19.49-20-22,6.12-22.89,16.08" transform="translate(-330.61 -131.64)"/><path class="cls-1" d="M397.05,363.78a27.35,27.35,0,0,0,4.39,7.9c4.47,5.58,11.21,8.33,18,5.27,4.48-2,8-5.61,11.65-8.87A54.65,54.65,0,0,1,446.48,358c7.18-2.92,15.61-3.44,22.72,0,6.32,3,10.38,9.91,17.31,11.75,8.94,2.37,17.74-4.29,26.84-3.43,5.4.5,10.33,2.6,15.4,4.31A129.06,129.06,0,0,0,573.48,377c4.71-.13,9.55-.86,13.65-3.22,7.11-4.08,10.78-14.25,3.83-20.38-4.67-4.12-11.3-3-17-2.34-12.39,1.32-27.48,4.66-39.46.08-13.73-5.26-16.61-20.53-23.17-32-5.09-8.92-17-11.16-23-1.84-3,4.69-4.61,10.09-6.27,15.35-1.11,3.53-1.91,8.06-5,10.45-4.2,3.24-10.48,2.23-15.22.94-13.09-3.54-24-12.48-37.08-15.88-22-5.73-34.14,17.68-27.72,35.71" transform="translate(-330.61 -131.64)"/><path class="cls-1" d="M778.39,441c-3.7-.26-7.24,2.66-7.36,6.08-.55,16.05-1.89,48.41-1.6,53,.36,5.71,3,35.73,18.61,32.27s16.68-19.84,15.67-32.84c-1.53-19.56-.78-31.23.13-50.8.07-1.5.1-3.13-.8-4.35-1.15-1.56-3.35-1.83-5.3-2L778.39,441m9.38,76.31c-12.08,4.64-7.79-29.56-3.67-43.63.6-2.05,3.7-2.45,4.29-.57,3.68,11.78,11,39.74-.62,44.2" transform="translate(-330.61 -131.64)"/><path class="cls-1" d="M782.15,396.51a3.61,3.61,0,0,1,1-1.88c2.06-2,5.91-1.74,8.41-.89,3.18,1.08,4.42,3.58,4,6.9-.18,1.42-.12,3,1.22,3.84s3.24.19,4.62,1.15,1.94,3.28,2.14,5.27a66.15,66.15,0,0,1,.4,9.44c-.09,1.87-.7,3.88-2.23,4.93a7.25,7.25,0,0,1-3.55,1c-4.83.4-9.55-.37-14.36-.4-3.18,0-7.48.61-9.71-2.28-1.16-1.49-1.18-3.44-1.35-5.24a52.64,52.64,0,0,1-.37-7.32,6,6,0,0,1,.34-2c.62-1.6,2.54-2.2,4-2.66a8.79,8.79,0,0,0,4.41-2.64c1.65-2.13.49-4.81,1-7.22" transform="translate(-330.61 -131.64)"/><path class="cls-1" d="M786.75,186.2a9.33,9.33,0,0,0,1.06-4.3,37.89,37.89,0,0,0-4.86-19,25,25,0,0,1-3.44-10.59c-.41-6.54,1.48-11,6.53-14.64a42.19,42.19,0,0,1,13.82-6,.8.8,0,0,1,.74,1.36,21.68,21.68,0,0,0-4.65,6.81,18.92,18.92,0,0,0-2,6.15,18.6,18.6,0,0,0,1.26,7.81c1.89,5.47,4.77,10.57,6.73,16s2.92,11.56.86,16.91a15.91,15.91,0,0,1-12.25,9.87,16.52,16.52,0,0,1-14.88-5.71c-1.61-1.93,5.17-2,5.31-2,2.53.07,4.26.16,5.74-2.64" transform="translate(-330.61 -131.64)"/><path class="cls-1" d="M756,159a7.55,7.55,0,0,1-4.16,1.55c-6.82.72-13.25-3-19.46-6.08A113.75,113.75,0,0,0,676,142.8c-5.63.31-11.42,1.1-16.32,4.06-6,3.63-10.36,10.31-17,12.43a16.55,16.55,0,0,1-8.5.29,16.23,16.23,0,0,1-10.17-6.51c-2.36-3.5-3-8.41-1.08-12.2,2.82-5.52,9.57-6.92,15.46-7.51,18.39-1.84,36.89-1.68,55.36-1.52,17.47.15,35.3-.79,52.73.45,4.91.35,8.8,1.42,10.78,6.59,1.82,4.74,2.9,16.45-1.29,20.07" transform="translate(-330.61 -131.64)"/><path class="cls-1" d="M405.83,405.7c4.09,2.84,8.11,5.79,11.9,9a22.3,22.3,0,0,0,1.79,1.42c.62.43,1.34.9,1.5,1.69.29,1.44-1.12,2.12-2.15,2.71-4,2.28-7.92,4.62-11.75,7.15A124.78,124.78,0,0,1,395.29,435c-4.28,2.18-5.63-4-4.81-7.08a4.69,4.69,0,0,1,1.79-2.67,6,6,0,0,1,1.67-.79c.41-.13,1.31-.19,1.58-.55s-.12-.77-.3-1.1c-.93-1.64-2.58-2.82-3.2-4.64a4.89,4.89,0,0,1,.76-4.52c1-1.29,2.93-1.78,4.36-2.46a1.47,1.47,0,0,0,.51-.34c1-1.27-3.3-3.13-3.93-3.83a13.32,13.32,0,0,1-2.55-6.18c-.19-.94-.77-3.2.65-3.49a2.79,2.79,0,0,1,1.74.42c4.31,2.16,8.27,5.18,12.27,8" transform="translate(-330.61 -131.64)"/><path class="cls-1" d="M376.55,428.5a8.33,8.33,0,0,1,4-5.16c.34-.19.74-.44.73-.83s-.28-.51-.51-.7a12.3,12.3,0,0,1-3.94-5.57,6.27,6.27,0,0,1-.25-3.89,3.67,3.67,0,0,1,1.4-1.9,1.45,1.45,0,0,0,.5-1.88,7.75,7.75,0,0,1-.69-3.43,19.93,19.93,0,0,1,1-5.11,7.65,7.65,0,0,1,.92-2.2.76.76,0,0,0-.48-1.2c-4.67-.81-27.81-.84-32.45-.23-7.73,1-13.27,5.06-15.14,12.7s-.8,17.41,4.4,23.53c4.1,4.84,21.78,3.69,27.53,3.4,1.31-.06,10.52.15,11.73-.4,2.41-1.09.72-5.07,1.26-7.13" transform="translate(-330.61 -131.64)"/><path class="cls-1" d="M402.12,198.11c5.92-.6,16.58-.46,23.82,6.72,0,0,1.5-13.71,12.8-19.19a7.91,7.91,0,0,1,11,4.57l8.51,25.88A8.56,8.56,0,0,1,453,226.81c-5.83,2.13-13.25,5.66-16.53,11a5.35,5.35,0,0,1-7,1.78c-6.2-3.27-16.22-7.77-21.79-6.08a5.12,5.12,0,0,1-6.12-2.5,70.24,70.24,0,0,1-7.25-25.27c-.48-4.51,5.12-7.3,7.87-7.59" transform="translate(-330.61 -131.64)"/><path class="cls-1" d="M373.81,504c-3.05-5-5.73-10.87-4.92-16.88,0,0,3.22.61,6.26-6.51s-7.31-13.31-12.36-16.18c-5.4-3.07-33.23-12.56-30.15,2.19,2.45,11.73,5.83,20.7,10.4,20.81-.4,0-2.89,7.29-3.12,7.85a63.53,63.53,0,0,1-3.74,8.07c-1.48,2.43-3.19,4.7-4.5,7.21a7.5,7.5,0,0,0,.64,8.11c3.79,5.22,15.83,29.07,19.69,39.5.51,1.37,1.74,3,3.2,3a3,3,0,0,0,2.76-1.86c1-2.32,1.95-4.64,2.93-7q3.87-9.15,8-18.15a97.55,97.55,0,0,1,6.58-12.62c1.83-2.79,4-5.15,3.19-8.71-.74-3.32-3.17-6-4.9-8.89m-11.92,17.81a6.18,6.18,0,1,1-6.17-6.11,6.16,6.16,0,0,1,6.17,6.11" transform="translate(-330.61 -131.64)"/><path class="cls-1" d="M489.11,439.34c-3.16,0-6.32-.07-9.45-.27a7.53,7.53,0,0,1-3.29-.76,4.13,4.13,0,0,1-2-3.17,5.28,5.28,0,0,1,2-4.08c3.18-3.09,6-6.54,9.45-9.36a4.58,4.58,0,0,1,4.34-1.09c3.2,1.2,5.75,3.78,8,6.25,1.87,2.05,5.27,4.93,5.31,7.89.06,4.43-5.73,4.79-8.91,4.69-1.8-.05-3.6-.07-5.4-.1" transform="translate(-330.61 -131.64)"/><path class="cls-1" d="M450.56,439.38c-3.15,0-6.31-.08-9.44-.27a7.44,7.44,0,0,1-3.3-.77,4.13,4.13,0,0,1-2-3.16,5.24,5.24,0,0,1,2-4.09c3.18-3.09,6-6.54,9.45-9.35a4.6,4.6,0,0,1,4.34-1.1c3.2,1.21,5.74,3.78,8,6.25,1.86,2.05,5.27,4.93,5.31,7.9.05,4.42-5.74,4.78-8.91,4.69-1.8-.06-3.6-.08-5.41-.1" transform="translate(-330.61 -131.64)"/><path class="cls-1" d="M526.06,439.31c-3.16,0-6.31-.08-9.45-.27a7.4,7.4,0,0,1-3.29-.77,4.11,4.11,0,0,1-2-3.16,5.25,5.25,0,0,1,2-4.09c3.19-3.08,6-6.54,9.45-9.35a4.61,4.61,0,0,1,4.34-1.1c3.2,1.21,5.75,3.78,8,6.26,1.85,2,5.26,4.92,5.3,7.89.06,4.43-5.73,4.78-8.91,4.69-1.8-.06-3.6-.08-5.4-.1" transform="translate(-330.61 -131.64)"/><path class="cls-1" d="M488.78,412.4c-3.15,0-6.31-.07-9.44-.26a7.65,7.65,0,0,1-3.29-.77,4.12,4.12,0,0,1-2-3.17,5.22,5.22,0,0,1,2-4.08c3.18-3.09,6-6.54,9.45-9.35a4.55,4.55,0,0,1,4.34-1.1c3.2,1.21,5.74,3.78,8,6.25,1.86,2.05,5.27,4.93,5.31,7.89,0,4.43-5.74,4.79-8.91,4.69-1.8-.05-3.6-.07-5.41-.1" transform="translate(-330.61 -131.64)"/><path class="cls-1" d="M450.24,412.44c-3.15,0-6.31-.08-9.45-.27a7.43,7.43,0,0,1-3.29-.77,4.13,4.13,0,0,1-2-3.16,5.24,5.24,0,0,1,2-4.09c3.18-3.08,6-6.54,9.45-9.35a4.6,4.6,0,0,1,4.34-1.1c3.19,1.21,5.74,3.79,8,6.26,1.86,2,5.27,4.93,5.31,7.89.05,4.43-5.74,4.79-8.92,4.69-1.79-.06-3.6-.08-5.4-.1" transform="translate(-330.61 -131.64)"/><path class="cls-1" d="M525.73,412.37c-3.15,0-6.31-.08-9.44-.27a7.5,7.5,0,0,1-3.29-.76,4.11,4.11,0,0,1-2-3.17,5.23,5.23,0,0,1,2-4.09c3.18-3.08,6-6.54,9.45-9.35a4.61,4.61,0,0,1,4.34-1.1c3.2,1.21,5.74,3.78,8,6.26,1.86,2,5.28,4.93,5.31,7.89.05,4.43-5.74,4.79-8.91,4.69-1.8-.05-3.6-.08-5.41-.1" transform="translate(-330.61 -131.64)"/><path class="cls-1" d="M735.87,504.86c-1.81-.86-3.63-1.73-5.39-2.67a4.76,4.76,0,0,1-1.69-1.32,2.59,2.59,0,0,1-.29-2.37,3.42,3.42,0,0,1,2.29-1.81c2.7-.93,5.29-2.16,8.07-2.86a2.91,2.91,0,0,1,2.81.53,13.6,13.6,0,0,1,2.88,5.72c.51,1.68,1.68,4.25.87,6-1.2,2.56-4.64,1.22-6.46.32-1-.51-2.05-1-3.09-1.5" transform="translate(-330.61 -131.64)"/><path class="cls-1" d="M532.34,554.33c-1.19,1.61-2.39,3.22-3.65,4.75a4.67,4.67,0,0,1-1.63,1.4,2.68,2.68,0,0,1-2.4-.16,3.37,3.37,0,0,1-1.37-2.57c-.42-2.79-1.16-5.55-1.33-8.38a2.87,2.87,0,0,1,1-2.64,13.85,13.85,0,0,1,6.21-1.74c1.76-.18,4.52-.84,6.07.26,2.32,1.65.35,4.76-.88,6.35-.7.9-1.38,1.82-2.07,2.73" transform="translate(-330.61 -131.64)"/><path class="cls-1" d="M625.29,493.22c-2,.34-4,.68-5.95.92a4.72,4.72,0,0,1-2.15-.1,2.62,2.62,0,0,1-1.63-1.75,3.39,3.39,0,0,1,.8-2.8c1.66-2.31,3-4.8,4.89-7a2.92,2.92,0,0,1,2.6-1.19,13.64,13.64,0,0,1,5.7,3c1.4,1.07,3.86,2.49,4.21,4.35.52,2.77-3.07,3.67-5.07,4-1.13.17-2.27.36-3.4.56" transform="translate(-330.61 -131.64)"/><path class="cls-1" d="M664.07,696.11c-7.33,5.2-17,6-25.73,5.26-7.21-.63-18.64-2-21.26-10.06-1.06-3.29,1-5.1,3.9-2.94,5.24,4,12.31,3.5,18,.87,5.26-2.42,9.55-6.36,14.62-9.09,4.44-2.38,11.71-3.84,15,1.2s-.21,11.7-4.53,14.76" transform="translate(-330.61 -131.64)"/><path class="cls-1" d="M701.46,239.18c15.5,13.89,19.62,33.38,27,51.8a6.45,6.45,0,0,0,1.71,2.74c8.84,7.06,10.79-23.62,10.56-27.13a57.67,57.67,0,0,0-37.47-50.06c-4.65-1.69-28.83-10-27.88.31.7,7.48,11.49,12.41,17.11,15.74a57.8,57.8,0,0,1,9,6.6" transform="translate(-330.61 -131.64)"/><path class="cls-1" d="M640.39,428.93C625,446.55,605.28,457,586.22,457.67c-7.94.35-13.79-7.47-12.59-15.8,1.13-7.87,6.91-11.05,13.45-12.14a49,49,0,0,0,19.46-7.32c12.05-7.82,23.34-20.1,28.74-34.17,9-23.41.17-59.68-24.51-67.31-9.5-2.95-17.78-.15-26.91,2.47-11.76,3.36-22.89,6.56-34.09-2.17-8.86-6.89-10.38-18.91-11.85-30.53-1.93-15.32-4-31.14-22.45-34.8-21.24-4.2-31.09,15.42-36.67,30.57-6.37,17.35-19.58,31.65-38.25,24.61-10.1-3.81-17.6-12.3-27.36-16.81a36.46,36.46,0,0,0-30.41-.44c-11.75,5-20.51,16.17-24.08,29a46.53,46.53,0,0,0-1.18,20.69c1.5,7.94,6.18,15.48,4.89,23.87a14.33,14.33,0,0,1-9.74,11.5c-16.89,4.83-20.89-23.67-21.66-35.9a82.29,82.29,0,0,1,12.73-49.43c14.41-22.31,37.33-33.46,62.84-30.63,9.39,1,17.85,5.61,26.06,10.28,6.78,3.86,15.93,8.46,23.15,3s8.66-15.9,12.41-23.81c10.26-21.69,34.31-28.85,55.35-23.49a53,53,0,0,1,26.94,16.11c5.26,6,8.39,13.8,10.31,21.69,2.28,9.37.23,22.55,8.9,28.61,5.41,3.79,11.44,1.76,17-.23,18.38-6.5,38.36-2,53.27,11.05,18.77,16.49,23.54,42.1,24.26,60.68.78,20.81-8.14,44-23.89,62.07" transform="translate(-330.61 -131.64)"/></svg>