<svg id="Layer_1" data-name="Layer 1" xmlns="http://www.w3.org/2000/svg" viewBox="0 0 233.94 337.83"><defs><style>.cls-1{fill:#f8a570;}.cls-2{fill:#f27f97;}.cls-3{fill:#f27b70;}.cls-4{fill:#6bafd8;}.cls-5{fill:#4abdad;}.cls-6{fill:#383838;}</style></defs><path class="cls-1" d="M863.59,706.9a11.85,11.85,0,0,0,4.57-3.5,8.25,8.25,0,0,0,1.61-3.61,10.63,10.63,0,0,0,0-3.47,8.58,8.58,0,0,0-2.34-4.59,16.58,16.58,0,0,0-3.57-2.73c-1.69-1-3.41-2-5.13-2.91A18.73,18.73,0,0,1,854,682.5a10.48,10.48,0,0,1-2.51-4.18,5.2,5.2,0,0,1-.09-3,3.52,3.52,0,0,1,2.13-2.38,6.17,6.17,0,0,1,2.33-.43,3,3,0,0,1,1.34.3,2,2,0,0,1,1,1,2.84,2.84,0,0,1,.28,1.7,8.92,8.92,0,0,1-.42,1.75,4.83,4.83,0,0,0-.32,1.2,4.55,4.55,0,0,0,1.19,4,5.7,5.7,0,0,0,6.12,1.66A5.17,5.17,0,0,0,868.8,680a6.46,6.46,0,0,0,0-2.36,3.71,3.71,0,0,0-.15-.66,7.71,7.71,0,0,0-2.12-3.34,11.75,11.75,0,0,0-4.86-2.62,18.32,18.32,0,0,0-3-.59,17.24,17.24,0,0,0-6.24.33,8.64,8.64,0,0,0-2,.64h0l-.3.12h0l0,0c-.39.19-.8.35-1.18.56a12.13,12.13,0,0,0-4.1,3.6,9.38,9.38,0,0,0-1.65,3.79,9.23,9.23,0,0,0,1.25,6.7,12.1,12.1,0,0,0,2.44,2.9A24.09,24.09,0,0,0,850,691.4a17.34,17.34,0,0,0,1.78,1.2,4.9,4.9,0,0,0,1.06.62l.29.2.11.05.13.08.11.05.14.1a.37.37,0,0,0,.21.16h0l.21.12s0,0,.07,0c.2.14.4.3.61.44,1.1.71,2.2,1.43,3.23,2.25a11.61,11.61,0,0,1,1.75,1.61,4.71,4.71,0,0,1,.8,1.32,3.06,3.06,0,0,1-.1,2.53,4.67,4.67,0,0,1-1.52,1.72,7.35,7.35,0,0,1-6.38,1,4.53,4.53,0,0,1-2.73-2.5,6.58,6.58,0,0,1-.56-2.35,2.52,2.52,0,0,0-.2-1.15.57.57,0,0,0-.13-.5h0a.15.15,0,0,1-.09-.17.09.09,0,0,0,0-.07.25.25,0,0,1-.14-.25,2.5,2.5,0,0,0-1.86-1.23,2.6,2.6,0,0,0-2.93,2.28,5.11,5.11,0,0,0,.38,2.62,10,10,0,0,0,4.26,4.9.74.74,0,0,0,.4.16h0l.13.11a.28.28,0,0,0,.3.13l.23.12h0l.21.1,0,0h0l.19.1a.05.05,0,0,0,.09,0l.41.17a.28.28,0,0,0,.31.08l.17.07a3,3,0,0,0,.76.28,16.09,16.09,0,0,0,2.84.5,17.91,17.91,0,0,0,4.51-.15,17.17,17.17,0,0,0,4.5-1.34" transform="translate(-843.03 -371.08)"/><path class="cls-1" d="M961,708.64a10.36,10.36,0,0,0,5.3-2.8,8.93,8.93,0,0,0,2-3.05,13,13,0,0,0,.91-4.93q0-13.74,0-27.47v-.5a.49.49,0,0,0-.13-.4,5,5,0,0,0-1.16-.25,7.34,7.34,0,0,0-3,.09,3.36,3.36,0,0,0-2.51,2.38,4.57,4.57,0,0,0-.17,1.42c0,3.45,0,6.89,0,10.34a17,17,0,0,1-.46,4.2,9.69,9.69,0,0,1-1.09,2.64,4.4,4.4,0,0,1-1.51,1.55,2.27,2.27,0,0,1-2.6-.05,3.54,3.54,0,0,1-.93-.92,7.86,7.86,0,0,1-1.18-2.66,20,20,0,0,1-.61-5c0-2.06,0-4.11,0-6.17a1.24,1.24,0,0,0-.06-.66,4.83,4.83,0,0,0-1.84-.32c-.25,0-.5-.06-.75-.06a5.71,5.71,0,0,0-2.51.49,3.22,3.22,0,0,0-1.67,1.84,5.73,5.73,0,0,0-.3,2c0,1.72,0,3.44.05,5.17A13.55,13.55,0,0,0,948,690.9a8.65,8.65,0,0,0,3.51,3.87c.11.07.2.15.31.21a7.18,7.18,0,0,0,8.26-1.14A8.55,8.55,0,0,0,962,691.3c0-.07.06-.16.16-.15l.06,0c0,.18,0,.37,0,.56q0,4.29,0,8.59c0,.72,0,1.45-.11,2.17a13,13,0,0,1-.42,2.32,5.57,5.57,0,0,1-.74,1.65,2.74,2.74,0,0,1-2.11,1.28,1.69,1.69,0,0,1-1.83-1.11,3.22,3.22,0,0,1-.13-1.84c.08-.4.2-.81.31-1.2a3.39,3.39,0,0,0,.07-1.73,4.1,4.1,0,0,0-4.19-3.14,2.07,2.07,0,0,0-1.25.33,3.34,3.34,0,0,0-2.32,2.38,4.25,4.25,0,0,0,.13,2.68,5.69,5.69,0,0,0,2,2.69,3.17,3.17,0,0,0,1.13.74l0,0,.23.11h0c.13.07.25.16.38.22a10.59,10.59,0,0,0,3.13.89,12.84,12.84,0,0,0,4.37-.16" transform="translate(-843.03 -371.08)"/><path class="cls-1" d="M1032.68,671.24l-.29.12,0,0v0a4.45,4.45,0,0,0-1.09.6,5.65,5.65,0,0,0-2.47,3.11,4,4,0,0,0-.06,2.27,3.89,3.89,0,0,0,4,2.83,2.06,2.06,0,0,0,1-.16,3.88,3.88,0,0,0,2.63-5,4,4,0,0,1-.17-.85,2.74,2.74,0,0,1,3.19-2.86,3.68,3.68,0,0,1,2.5,1.73,5.25,5.25,0,0,1,.36,4.78,3.56,3.56,0,0,1-1.38,1.8,6.07,6.07,0,0,1-1.81.83c-1.39.4-2.82.61-4.24.89a6.6,6.6,0,0,0-1.74.47l-.28.08,0,0-.06.05c-.39.14-.79.26-1.17.43a7.15,7.15,0,0,0-2.91,2.31,8.32,8.32,0,0,0-1.59,5.62,5.62,5.62,0,0,0,.54,2,7.26,7.26,0,0,0,2.3,2.74,9.37,9.37,0,0,0,3.33,1.54.89.89,0,0,0,.68.07c.06.15.19.12.31.12a1,1,0,0,0,.48.11,11,11,0,0,0,3.38-.21,7.64,7.64,0,0,0,4.55-3c.09-.14.16-.3.37-.34,0,.07.07.14.1.22a4,4,0,0,0,2.77,2.65,7.59,7.59,0,0,0,3.18.22,5.12,5.12,0,0,0,1.34-.31,2.93,2.93,0,0,0,.56-.28.42.42,0,0,0,.19-.58,1.68,1.68,0,0,0-.43-.68,2.82,2.82,0,0,1-.76-1.86c0-.27,0-.54,0-.81q0-5.38,0-10.77a12.05,12.05,0,0,0-.84-4.56,9.54,9.54,0,0,0-3.94-4.63,12.82,12.82,0,0,0-5.93-1.85,13.81,13.81,0,0,0-6.1.86.79.79,0,0,0-.38.21m10.08,9.59v6.6a8.76,8.76,0,0,1-.88,3.86,6.46,6.46,0,0,1-2.21,2.65,3.78,3.78,0,0,1-1.75.66,3.43,3.43,0,0,1-3.18-1.39,5.08,5.08,0,0,1-1-4.05,5.85,5.85,0,0,1,1.65-3.22,16.51,16.51,0,0,1,2.74-2.18c.83-.56,1.66-1.11,2.47-1.7a6.68,6.68,0,0,0,2-2.13s.06,0,.16-.1Z" transform="translate(-843.03 -371.08)"/><path class="cls-1" d="M886.61,675.93a5.33,5.33,0,0,1,.31,3.52,4.09,4.09,0,0,1-2.59,3.06,12,12,0,0,1-2,.61c-.95.18-1.9.34-2.84.53-.35.07-.69.17-1,.26l-.22.08a1.57,1.57,0,0,0-.79.2,8.38,8.38,0,0,0-2.4,1,6.84,6.84,0,0,0-2.28,2.26,8.75,8.75,0,0,0-1.27,3.8,6.33,6.33,0,0,0,1.71,5.14,8.67,8.67,0,0,0,4.5,2.55.65.65,0,0,0,.17.08,11.08,11.08,0,0,0,4.06.13,8.42,8.42,0,0,0,3.24-1.27,7.12,7.12,0,0,0,1.92-1.87c.07-.1.11-.27.29-.28a1.14,1.14,0,0,1,.25.49,3.89,3.89,0,0,0,2.21,2.18,7.16,7.16,0,0,0,4.07.33,4.69,4.69,0,0,0,1.37-.45.5.5,0,0,0,.3-.61,1,1,0,0,0-.21-.45c-.1-.13-.22-.25-.33-.38a2.7,2.7,0,0,1-.61-1.34c0-.52-.11-1-.11-1.56,0-3.55,0-7.1,0-10.65a11.18,11.18,0,0,0-1-4.89,9.83,9.83,0,0,0-4.49-4.54,12.66,12.66,0,0,0-3.56-1.19,15.32,15.32,0,0,0-2.87-.26,15.65,15.65,0,0,0-3.54.49,3.84,3.84,0,0,0-1.22.46l-.17.05c0,.06,0,.07-.09,0a8,8,0,0,0-2.36,1.39,5.19,5.19,0,0,0-1.69,2.48,4.1,4.1,0,0,0,0,2.68,3.89,3.89,0,0,0,4.56,2.38,1.57,1.57,0,0,0,.37,0,4.12,4.12,0,0,0,2.61-2.51,3.42,3.42,0,0,0,.18-1.59c-.06-.48-.24-.92-.34-1.39a2.46,2.46,0,0,1,.64-2.3,2.88,2.88,0,0,1,3.67-.48,3.81,3.81,0,0,1,1.64,1.84m.6,6.23c0,2.63,0,5.27,0,7.91a8.11,8.11,0,0,1-1.61,4.77,5.31,5.31,0,0,1-2.37,1.88,3.42,3.42,0,0,1-3.83-1,5,5,0,0,1-1.21-4.23A6,6,0,0,1,880.1,688a18.44,18.44,0,0,1,2.53-1.94c.85-.58,1.72-1.11,2.52-1.75a6.5,6.5,0,0,0,1.89-2l.09-.16Z" transform="translate(-843.03 -371.08)"/><path class="cls-1" d="M981.26,698.91a.16.16,0,0,0,.17,0,.58.58,0,0,0,.35.13c.46,0,.91.12,1.37.15a10,10,0,0,0,5.29-1,11.84,11.84,0,0,0,3.12-2.27,13.5,13.5,0,0,0,3.32-5.5,15.17,15.17,0,0,0,.67-6.14,14.77,14.77,0,0,0-1.65-5.63,12.64,12.64,0,0,0-3.62-4.24,10.7,10.7,0,0,0-5.55-2.11,9.59,9.59,0,0,0-4.49.7h0l-.19.07-.14.07a1.26,1.26,0,0,0-.59.29l-.18.09h0l0,0-.16.08h0l0,0-.37.22-.23.1h0s0,0,0,0l-.13.1c-.06,0-.11,0-.12.07a9.52,9.52,0,0,0-1.13.88,12.78,12.78,0,0,0-2.82,3.55,15.14,15.14,0,0,0-1.73,5.48,15.75,15.75,0,0,0-.08,2.17,14.44,14.44,0,0,0,.61,3.92,13.59,13.59,0,0,0,2.36,4.64,11,11,0,0,0,2.68,2.5,4.61,4.61,0,0,0,1.18.72h0l.27.1a1.26,1.26,0,0,0,.56.23l0,0h0l.16.08.14.05s0,0,.07,0l.26.1h0a1.3,1.3,0,0,0,.74.21m3.22-23.68a5,5,0,0,1,1,.86,9.46,9.46,0,0,1,1.66,2.84,20.87,20.87,0,0,1,1.32,5.56,27.18,27.18,0,0,1,.12,4.23,16.35,16.35,0,0,1-.92,4.94,7.5,7.5,0,0,1-1,2l-.37.42a2.29,2.29,0,0,1-3.18.16,6.15,6.15,0,0,1-1.21-1.34,13.42,13.42,0,0,1-1.37-2.86,22.74,22.74,0,0,1-1-4.3,26.41,26.41,0,0,1-.22-3.72,15.89,15.89,0,0,1,.1-2.18,13.63,13.63,0,0,1,1.4-5.14,5.34,5.34,0,0,1,1-1.22,2.23,2.23,0,0,1,2.78-.23" transform="translate(-843.03 -371.08)"/><path class="cls-1" d="M1068.34,674.63a3.81,3.81,0,0,0,2.9,4.4,3,3,0,0,1,.93.37,3.51,3.51,0,0,1,1.51,1.92,9.55,9.55,0,0,1,.51,2.75,22.62,22.62,0,0,1-.6,5.68,30.63,30.63,0,0,1-1.4,4.58,20.62,20.62,0,0,1-1.89,3.79,8.13,8.13,0,0,1-1.27,1.54,2.38,2.38,0,0,1-1.24.68,2,2,0,0,1-1.76-.64,5.06,5.06,0,0,1-.91-1.33,18.12,18.12,0,0,1-1.23-3.59c-.31-1.23-.58-2.46-.82-3.7-.41-2.18-.87-4.35-1.3-6.53-.36-1.84-.68-3.68-1-5.51a5.12,5.12,0,0,0-1.15-2.39,1.44,1.44,0,0,0-.6-.52l-.13-.11a.11.11,0,0,1-.13-.1,5.07,5.07,0,0,0-1.83-.79,9.25,9.25,0,0,0-3.92.06.88.88,0,0,0-.53.22,1.61,1.61,0,0,0,0,.22c.2,1,.39,2,.59,3.06.25,1.28.51,2.56.76,3.84.29,1.48.56,3,.84,4.46s.63,3.08.91,4.63a30.75,30.75,0,0,0,1.31,4.92,15.33,15.33,0,0,0,1.76,3.56,1.91,1.91,0,0,0,.36.53v0a.82.82,0,0,0,.13.17v0h0l.09.11a6.28,6.28,0,0,0,1.72,1.65h0l.21.12s0,0,0,0a1.46,1.46,0,0,0,.19.16,7.26,7.26,0,0,0,5.2.94,6.41,6.41,0,0,0,2.5-1.25,14,14,0,0,0,3.57-4.45,28.8,28.8,0,0,0,2.15-5,44.7,44.7,0,0,0,1.57-6.15,37.48,37.48,0,0,0,.6-5.69,23.93,23.93,0,0,0-.27-4.78,10.22,10.22,0,0,0-1-3.18,3.62,3.62,0,0,0-2.44-1.9c-.16,0-.33-.07-.5-.09a3.86,3.86,0,0,0-3,.78,3.67,3.67,0,0,0-1.43,2.47" transform="translate(-843.03 -371.08)"/><path class="cls-1" d="M897.86,700.38a6,6,0,0,0,.24,1.84,3,3,0,0,0,1.4,1.77,5.35,5.35,0,0,0,3.21.62,6,6,0,0,0,2.21-.37,2.21,2.21,0,0,0,0-.73c0-5.07,0-10.13,0-15.2a9.33,9.33,0,0,1,.27-2.41,6.94,6.94,0,0,1,1.2-2.51A4.6,4.6,0,0,1,908,682a3.08,3.08,0,0,1,2.43-.25,3.74,3.74,0,0,1,1.48.92,5.89,5.89,0,0,1,1.11,1.57,13,13,0,0,1,1.12,4,19,19,0,0,1,.14,2.61v9.47a6.61,6.61,0,0,0,.17,1.54,3.33,3.33,0,0,0,2.57,2.55,8.37,8.37,0,0,0,4.1-.1.7.7,0,0,0,.21-.11,1.64,1.64,0,0,0,0-.69q0-6.94,0-13.89a18.26,18.26,0,0,0-.21-2.86,11.35,11.35,0,0,0-2-5,9.25,9.25,0,0,0-2.49-2.34,9.06,9.06,0,0,0-3.25-1.28,8.86,8.86,0,0,0-5.35.58,6.11,6.11,0,0,0-2.39,1.76.1.1,0,0,0-.08.08.37.37,0,0,0-.19.2h0c-.17.1-.21.36-.5.39v-.7q0-7.28,0-14.57a7.35,7.35,0,0,0-.14-1.48,3.66,3.66,0,0,0-2.11-2.75s-.05-.05-.09-.05a.12.12,0,0,1-.16-.07l-.12,0a.11.11,0,0,1-.14-.06l-.33-.14a.12.12,0,0,0-.15,0,7.54,7.54,0,0,0-4.21,0,3,3,0,0,0-.69.31.47.47,0,0,0-.23.63,1.47,1.47,0,0,0,.41.62,3.14,3.14,0,0,1,.82,2c0,.27,0,.54,0,.81v34.62" transform="translate(-843.03 -371.08)"/><path class="cls-1" d="M1000.71,669.84a.52.52,0,0,0,0,.11.6.6,0,0,0-.1.43l-.24.67-.76,1.24-.09.1h0v0a.14.14,0,0,0-.08.09.39.39,0,0,0-.1.08h0l-.18.19a4.2,4.2,0,0,1-2.1.92,1.14,1.14,0,0,0-.36.1.89.89,0,0,0,.29,1.72c.19,0,.38,0,.57,0a1.5,1.5,0,0,1,.69.07,2.25,2.25,0,0,1,0,.73c0,4.41,0,8.81,0,13.21,0,.89,0,1.78.1,2.67a10.23,10.23,0,0,0,.75,3.13.59.59,0,0,0,0,.13,9.3,9.3,0,0,0,3.65,4.47,12.54,12.54,0,0,0,5.47,1.85,3.27,3.27,0,0,0,.44,0,.79.79,0,0,0,.74-.72.82.82,0,0,0-.66-1,3.8,3.8,0,0,1-1.66-.84,4.66,4.66,0,0,1-1.34-2.13,7.71,7.71,0,0,1-.38-2.52V676.24a1.92,1.92,0,0,1,0-.64.88.88,0,0,1,.46-.08,5.42,5.42,0,0,0,.57,0,.85.85,0,0,0,.84-.83.81.81,0,0,0-.79-.88c-.17,0-.34,0-.51,0a1.47,1.47,0,0,1-.52,0,.6.6,0,0,1-.09-.44v-1.68a7.89,7.89,0,0,0-.13-1.61,4,4,0,0,0-1.59-2.66,4.29,4.29,0,0,0-2.42-.77c-.08,0-.15,0-.25.16a14.94,14.94,0,0,1-.27,3.1" transform="translate(-843.03 -371.08)"/><path class="cls-1" d="M1020.05,700a9.32,9.32,0,0,0,3.17-1.61,5.67,5.67,0,0,0,2.25-5.43,5.08,5.08,0,0,0-.38-1.51,6.51,6.51,0,0,0-2.09-2.59,25.21,25.21,0,0,0-3.08-1.93,28.27,28.27,0,0,1-3.22-1.93,9.52,9.52,0,0,1-2.46-2.64,4.76,4.76,0,0,1-.76-2.28,2.35,2.35,0,0,1,1.15-2.33,3.24,3.24,0,0,1,2.18-.41,1.45,1.45,0,0,1,1.31,1.44,2.57,2.57,0,0,1,0,.68,3.52,3.52,0,0,1-.2.79,4,4,0,0,0-.24,1,2.88,2.88,0,0,0,.64,2.33,3.74,3.74,0,0,0,3.2,1.41,3.54,3.54,0,0,0,3.34-3,4.3,4.3,0,0,0-1-3.47,6.23,6.23,0,0,0-2-1.53,9.94,9.94,0,0,0-3.6-1,10.71,10.71,0,0,0-5.43.68,2.7,2.7,0,0,0-.71.38,7.39,7.39,0,0,0-2.81,2.42,6,6,0,0,0-1.11,3,6.2,6.2,0,0,0,1.52,4.61,11.33,11.33,0,0,0,2.74,2.33h0l.12.08s0,.05.07,0l.18.12.21.15h0l2.94,1.89a19.22,19.22,0,0,1,2.41,1.78,4.45,4.45,0,0,1,.86,1,2,2,0,0,1-.11,2.49,3.18,3.18,0,0,1-.67.65,4.67,4.67,0,0,1-3.62.83,2.93,2.93,0,0,1-2.28-1.74,3.94,3.94,0,0,1-.37-1.5,2.11,2.11,0,0,0-.25-1.13v0a.12.12,0,0,1-.08-.15,1.25,1.25,0,0,0-.47-.57,1.68,1.68,0,0,0-2.54.64,2,2,0,0,0-.17.72,3.77,3.77,0,0,0,.49,2,6,6,0,0,0,2.48,2.63,2.66,2.66,0,0,0,.92.5h0a10,10,0,0,0,3.9.84,11.88,11.88,0,0,0,3.65-.5" transform="translate(-843.03 -371.08)"/><path class="cls-1" d="M943.81,677.06a.88.88,0,0,0,.78-.9.86.86,0,0,0-.79-.82c-.23,0-.46,0-.69,0s-.3,0-.41-.11a1.8,1.8,0,0,1,0-.61v-1.87a5.85,5.85,0,0,0-.3-1.9,3.92,3.92,0,0,0-4-2.68,3.43,3.43,0,0,0-.08.89,1.64,1.64,0,0,0,0,.66,1.93,1.93,0,0,1,0,.24c0,.4-.11.8-.16,1.2l0,.05v.06c0,.13,0,.26-.08.39l-.67,1.6-.09.16a1.55,1.55,0,0,0-.39.52l-.14.12a3.89,3.89,0,0,1-2.17,1.16,3.88,3.88,0,0,0-.49.11.9.9,0,0,0,.14,1.75c.29,0,.59,0,.88,0s.34-.05.5.14c0,.21,0,.46,0,.7q0,7.23,0,14.45a12.47,12.47,0,0,0,.46,3.38,7,7,0,0,0,.79,2,.85.85,0,0,0,0,.17,9.23,9.23,0,0,0,2.53,3.06,12.55,12.55,0,0,0,7,2.41.29.29,0,0,0,.29-.08,4,4,0,0,0,0-1.58l-.67-.15a3.3,3.3,0,0,1-1.86-1.08,5,5,0,0,1-1-1.77,8.85,8.85,0,0,1-.43-2.89v-18c0-.12,0-.25,0-.37s0-.25.1-.36a1.4,1.4,0,0,1,.54,0,4.35,4.35,0,0,0,.51,0" transform="translate(-843.03 -371.08)"/><path class="cls-1" d="M932.38,702.55a1.23,1.23,0,0,0-.39-.63,2.91,2.91,0,0,1-.8-1.59,5,5,0,0,1-.05-.87V683.83c0-.34,0-.67,0-1a4.14,4.14,0,0,0-.26-1.4,3.5,3.5,0,0,0-1.67-2,5.7,5.7,0,0,0-3.58-.64,5,5,0,0,0-1.66.29,2.21,2.21,0,0,0-.6.33.37.37,0,0,0-.14.44,1.46,1.46,0,0,0,.38.63,3,3,0,0,1,.78,1.66,7.26,7.26,0,0,1,.06.93v15.69a10.29,10.29,0,0,0,0,1.24,3.42,3.42,0,0,0,.88,2.14,2.33,2.33,0,0,0,.17.26,4,4,0,0,0,1.81,1.07,7.24,7.24,0,0,0,4.15,0,2.75,2.75,0,0,0,.63-.28.44.44,0,0,0,.25-.57" transform="translate(-843.03 -371.08)"/><path class="cls-1" d="M931.06,673a3.2,3.2,0,0,0-2.51-2.57,2.9,2.9,0,0,0-2.8.63,3.24,3.24,0,0,0,0,5.2v0h0a3.33,3.33,0,0,0,3.32.38,3.26,3.26,0,0,0,1.95-3.7" transform="translate(-843.03 -371.08)"/><path class="cls-2" d="M1076.73,645.7c-.23,1.79-1.29,4.38-2.65,5.44a8.08,8.08,0,0,1-6.49,1.48,5.92,5.92,0,0,1-4.11-2.87c-2-3.71-1.31-8.18-1.31-12.22a92.57,92.57,0,0,0-.84-12.78,70.61,70.61,0,0,0-6.56-22,54.35,54.35,0,0,0-7.92-11.77c-9.36-10.52-23.27-16.26-37.95-16.26A58.15,58.15,0,0,0,992.71,577c-18,5.29-25.65,11.61-34,28.17,0,0-.1.28-.29.76-.55,1.5-2,5.46-3.31,8.94a7.35,7.35,0,0,1-12.78,1.69,7.09,7.09,0,0,1-1-6.45c2.36-7.08,7.6-20.3,16.26-29.28a69.37,69.37,0,0,1,35.51-19.39,71.35,71.35,0,0,1,42,4,67.69,67.69,0,0,1,30.78,26c8.71,13.9,10.45,30.49,11,46.34a48.43,48.43,0,0,1-.15,7.94" transform="translate(-843.03 -371.08)"/><path class="cls-3" d="M1037.29,522.92c-16.15,3.43-27.47-17.77-15.34-29.63,7.83-7.64,20.39-5.36,26,3.12,6.51,9.75,1,24-10.7,26.51" transform="translate(-843.03 -371.08)"/><path class="cls-3" d="M895.59,541.51c.14,8-10.72,11.53-15.14,4.74-2.85-4.38-.16-9.42,4.29-11.38,5.11-2.25,10.74.84,10.85,6.64" transform="translate(-843.03 -371.08)"/><path class="cls-4" d="M1016.25,430.52c7.12,6.71,11,15,14.82,23.77,1.6,3.71,4,10,3.2,14.17-.42,2.14-3.62,2.88-5.39,2.26-6.23-2.17-6.78-11.39-8.11-16.7-1.88-7.51-7.22-13.78-13.8-17.77A32.66,32.66,0,0,0,996.24,432c-3.51-.65-11.71.83-12.34-4.55-.72-6.28,10.33-6.41,14.2-5.58,6.46,1.39,13.66,4.39,18.15,8.63" transform="translate(-843.03 -371.08)"/><path class="cls-5" d="M843.14,424.09c0,.92.25,2.07,1.26,2.33s2-.8,2.38-1.75c1.1-2.64,1.23-5.53,2.12-8.23,1.74-5.3,3.32-11,6.7-15.55s8.54-7.16,13.59-9.48c5.22-2.4,9.94-4.65,13.91-8.88,2.12-2.26,3.89-5,3.41-8.21-1.18-8-11.44,1.1-14.14,2.63a2,2,0,0,1-1.15.34c-1.64-.21,0-4.08-.73-5.07-1.46-2.13-5.06-.27-6.63.76-1.34.88-2.43,2.14-3.91,2.82-2.44,1.14-2.75-.35-3.64-2.23-.78-1.63-3-2.5-5-2.27a7.91,7.91,0,0,0-4.92,2.73c-3.11,3.48-3.4,8.33-2.79,12.75s2.57,9.43,2.19,14c-.44,5.31-2.76,17.85-2.69,23.33" transform="translate(-843.03 -371.08)"/><path class="cls-3" d="M1076.88,485.27c0,1.19.14,5.27-2.45,5.51-2,.19-6.93.47-9.44.39-4-.15-5.14.51-5.29-3.06-.23-5.23.19-12.68.16-17.81,0-7.07-.21-14.13-.42-21.19-.39-13.82-3.61-29.17-13.85-39.45a38.73,38.73,0,0,0-20.41-10.55c-10.26-1.87-20.26,1.68-30.14,3.92-7.1,1.61-14.79,1.49-20.27-3.86a26.62,26.62,0,0,1-4.87-7c-1.25-2.44-2.12-5.28-3.86-7.43a11.32,11.32,0,0,0-7.16-4c-13.52-2.26-23,9.12-34.74,13.05-5.43,1.81-11.66,2-16.77-.54s-8.75-8.18-7.81-13.68,7.18-9.87,12.65-8.14c4.52,1.42,6.8,5.88,10.84,8,4.22,2.18,9.53,1.92,14,.71a39,39,0,0,0,6.28-2.39c5.71-2.67,11.11-6.08,17.61-6.51a15.33,15.33,0,0,1,9.79,2.57c3.84,2.69,5.26,7.17,6.79,11.34,2.64,7.21,8.8,10.82,16.59,9.25,18.13-3.66,34.4-9,51.29,2,17.64,11.52,28.56,31.89,30.61,52.42,1.37,13.77.86,22.4.86,36.43" transform="translate(-843.03 -371.08)"/><path class="cls-6" d="M968.53,389.49c-.38-.83-.74-1.68-1.1-2.56.4.83.86,2,1.1,2.56" transform="translate(-843.03 -371.08)"/><path class="cls-2" d="M957.51,397.22c0-.13-.11-.26-.17-.39-1.78-3.79-6.67-5-10.43-3.6-2.7,1-4.22,4-4.39,6.78a6.31,6.31,0,0,0,2.79,5.55,7.16,7.16,0,0,0,4.09,1.19c1.11,0,2.28-.29,3.42-.2,3,.26,4.17,4.84,7.45,4.17a1.8,1.8,0,0,0,1.22-.85,1.92,1.92,0,0,0,.21-1c0-1.64-1.19-3.2-2.14-4.46-.66-.86-1.52-1.54-1.67-2.69-.12-.87.13-1.74.06-2.61a6.5,6.5,0,0,0-.44-1.89" transform="translate(-843.03 -371.08)"/><path class="cls-3" d="M882.15,631.1c-6,0-12-.25-17.94-.12-5.11.1-12.94-.91-17.06,2.47-4.43,3.65-5,13.17-.28,16.78,2.48,1.89,6,1.82,8.92,2.19a108.52,108.52,0,0,0,12.88.32c7.94-.06,14.81,0,22.68-.06,10.5-.06,24.81-.19,35.31-.23,3.21,0,7.57.36,10-2.42a11.61,11.61,0,0,0,.53-13.54,10.83,10.83,0,0,0-5.87-3.57c-9.08-2.4-23.15-1.45-32.46-1.65q-8.37-.18-16.74-.17" transform="translate(-843.03 -371.08)"/><path class="cls-1" d="M960,626.85c7.33-4.31,16.14-4.08,24.12-1.91,6.33,1.73,12.5,3.17,19.14,1.14a21.48,21.48,0,0,0,3.79-1.54c.28-.14,1.49-.9,2.36-1.49.41-.29,1.11-.18,1.24.2a8.8,8.8,0,0,1-.81,7.59,14.89,14.89,0,0,1-8.69,6.14c-9.31,2.65-21.07-1.85-28.94,4.65-3.29,2.71-4.67,7-8.27,9.51-4.85,3.47-11.68,1-13.94-3.46-3.44-6.79,3.19-16.82,10-20.83" transform="translate(-843.03 -371.08)"/><path class="cls-5" d="M971.25,615.41a4,4,0,0,0,.09,1.2,1.67,1.67,0,0,0,1.52,1.32,2.53,2.53,0,0,0,2.61-1.64c.18-.88-.15-1.78,0-2.66a1.82,1.82,0,0,1,.27-.64c1.94-2.75,5.29-3,8.37-3.58,4.34-.83,5.2-3.32,8.42-5.78,7.85-6,10.79,6.42,16.64,8.66,5.09,1.94,7.62-6.62,12.66-4.14,2.56,1.26,5.81,5.87,5.84,8.85.11,12.74-6,16.47-6.05,25.58,0,10.06,11.43,12.95,18.19,7.45,8.65-7,7.73-26,4.09-36s-10.8-19.67-21-23.73c-14.62-5.81-32.06-1.45-42.95,10a35.74,35.74,0,0,0-3.16,3.78,43,43,0,0,0-3.08,5,26.29,26.29,0,0,0-2.25,5.1,6.92,6.92,0,0,0-.24,1.36" transform="translate(-843.03 -371.08)"/><path class="cls-4" d="M879,580.11a14.74,14.74,0,0,1-1.75-2.19c-1.57-2.37-4.91-10.87-.52-12.17a2.73,2.73,0,0,1,2.23.46c1.8,1.2,3,3.58,5.32,3.35,3.85-.36,2.67-7.41,4-10.18,1-2.19,3.82-3.53,5.87-2.62,2.46,1.09,1.59,4.88,1.34,7.17a2.81,2.81,0,0,0,0,1c.08.3.31.58.59.58a.88.88,0,0,0,.55-.31c.92-.92.93-2.41,1.44-3.61.82-1.91,2.88-2.06,4.43-1.49,4.29,1.61,2.78,7.22,1.17,10.6-4.56,9.56-16.91,17.39-24.68,9.45" transform="translate(-843.03 -371.08)"/><path class="cls-1" d="M919.06,556a15.27,15.27,0,0,1-1.75-2.19c-1.57-2.37-4.91-10.87-.52-12.17a2.73,2.73,0,0,1,2.23.46c1.81,1.2,3,3.57,5.32,3.35,3.85-.37,2.68-7.41,4-10.19,1-2.18,3.82-3.52,5.87-2.61,2.46,1.09,1.59,4.88,1.34,7.17a2.75,2.75,0,0,0,0,.95.7.7,0,0,0,.59.58.83.83,0,0,0,.55-.3c.92-.93.93-2.42,1.45-3.61.81-1.91,2.87-2.06,4.42-1.49,4.29,1.6,2.78,7.22,1.17,10.6-4.56,9.56-16.91,17.39-24.68,9.45" transform="translate(-843.03 -371.08)"/><path class="cls-4" d="M927.53,612.58c4.76,1.48,3.58-3.92,5.31-9.41s5.72-9,1-10.48-10,1.78-11.76,7.28.72,11.14,5.49,12.61" transform="translate(-843.03 -371.08)"/><path class="cls-1" d="M907,618.25v0a1.43,1.43,0,0,1-2.45.77,13,13,0,0,0-9-3.59,13.47,13.47,0,0,0-5.76,1.16,13,13,0,0,0-2.48,1.46c-.25.19-.48.39-.71.6a2.1,2.1,0,0,1-2.7.07l-.44-.36a12.11,12.11,0,0,0-2.44-1.57,13.93,13.93,0,0,0-5.78-1.36,13.47,13.47,0,0,0-7.79,2.27,13,13,0,0,0-1.59,1.27c-.35.33-.51.94-1.11.81s-1.14-1.09-1.61-1.48a12,12,0,0,0-2.3-1.48,14.09,14.09,0,0,0-5.91-1.39,12.8,12.8,0,0,0-9.76,3.85,1.16,1.16,0,0,1-1.89-.22,3.19,3.19,0,0,1-.22-1.3c.11-5.06,5.43-9.07,11.87-8.94a13,13,0,0,1,9,3.55,1.33,1.33,0,0,0,1.88,0,12.92,12.92,0,0,1,9.47-3.55A14,14,0,0,1,881,610.2a11.8,11.8,0,0,1,3,2.24,1.55,1.55,0,0,0,2.15,0,9.15,9.15,0,0,1,1-.88,12.36,12.36,0,0,1,2.53-1.51,13.65,13.65,0,0,1,5.83-1.15c6.44.12,11.57,4.32,11.45,9.39" transform="translate(-843.03 -371.08)"/><path class="cls-2" d="M907,603.19v0a1.43,1.43,0,0,1-2.45.77,13,13,0,0,0-9-3.59,13.47,13.47,0,0,0-5.76,1.16,13,13,0,0,0-2.48,1.46c-.25.19-.48.39-.71.6a2.1,2.1,0,0,1-2.7.07l-.44-.35a11.69,11.69,0,0,0-2.44-1.57,13.79,13.79,0,0,0-5.78-1.37,13.54,13.54,0,0,0-7.79,2.27,13,13,0,0,0-1.59,1.27c-.35.33-.51.94-1.11.81s-1.14-1.09-1.61-1.48a12.54,12.54,0,0,0-2.3-1.48,14.09,14.09,0,0,0-5.91-1.39,12.83,12.83,0,0,0-9.76,3.85,1.16,1.16,0,0,1-1.89-.22,3.19,3.19,0,0,1-.22-1.3c.11-5,5.43-9.06,11.87-8.94a13.09,13.09,0,0,1,9,3.55,1.33,1.33,0,0,0,1.88,0,13,13,0,0,1,9.47-3.55,14.16,14.16,0,0,1,5.79,1.34,11.8,11.8,0,0,1,3,2.24,1.55,1.55,0,0,0,2.15,0,9.08,9.08,0,0,1,1-.87,12.4,12.4,0,0,1,2.53-1.52,13.65,13.65,0,0,1,5.83-1.15c6.44.13,11.57,4.33,11.45,9.39" transform="translate(-843.03 -371.08)"/><path class="cls-4" d="M953.2,565.63c2.74,4.13,5.27-.79,10.12-4s10.18-3.39,7.43-7.52-8.91-4.9-13.75-1.73-6.55,9.08-3.8,13.21" transform="translate(-843.03 -371.08)"/><path class="cls-4" d="M1005,546.09c-.46,4.93,4.62,2.66,10.4,3.2s10.08,3.67,10.54-1.26-3.85-9.34-9.63-9.88-10.85,3-11.31,7.94" transform="translate(-843.03 -371.08)"/><path class="cls-5" d="M875.86,485.81a13.57,13.57,0,0,0,2.17,3.91c2.21,2.76,5.54,4.11,8.91,2.6,2.21-1,3.95-2.77,5.76-4.38a26.74,26.74,0,0,1,7.59-5,14.06,14.06,0,0,1,11.23,0c3.12,1.49,5.13,4.9,8.55,5.81,4.42,1.17,8.77-2.12,13.27-1.7,2.67.25,5.1,1.29,7.61,2.13a63.51,63.51,0,0,0,22.1,3.15,14.23,14.23,0,0,0,6.75-1.59c3.51-2,5.33-7,1.9-10.07-2.31-2-5.59-1.46-8.4-1.16-6.12.65-13.58,2.31-19.51,0-6.78-2.6-8.2-10.15-11.45-15.84-2.51-4.4-8.42-5.51-11.36-.9a31.13,31.13,0,0,0-3.09,7.58c-.55,1.75-.95,4-2.48,5.17-2.08,1.6-5.18,1.1-7.52.46-6.47-1.75-11.85-6.17-18.33-7.85-10.89-2.83-16.87,8.74-13.7,17.65" transform="translate(-843.03 -371.08)"/><path class="cls-1" d="M1064.33,524a3.4,3.4,0,0,0-3.64,3c-.27,7.93-.94,23.92-.79,26.17.17,2.82,1.49,17.66,9.19,16s8.25-9.8,7.75-16.23c-.76-9.67-.39-15.43.06-25.1a3.28,3.28,0,0,0-.39-2.15,3.39,3.39,0,0,0-2.62-1l-9.56-.67m4.63,37.71c-6,2.29-3.85-14.61-1.81-21.57.29-1,1.83-1.21,2.12-.27,1.81,5.81,5.44,19.63-.31,21.84" transform="translate(-843.03 -371.08)"/><path class="cls-5" d="M1066.18,502a1.81,1.81,0,0,1,.5-.93c1-1,2.92-.86,4.15-.44a2.86,2.86,0,0,1,2,3.41,1.79,1.79,0,0,0,.6,1.9c.69.41,1.61.09,2.29.57a3.61,3.61,0,0,1,1.06,2.6,33,33,0,0,1,.19,4.66,3,3,0,0,1-1.1,2.44,3.54,3.54,0,0,1-1.75.49c-2.39.19-4.73-.19-7.1-.2-1.57,0-3.7.3-4.8-1.13a4.76,4.76,0,0,1-.67-2.59,25.67,25.67,0,0,1-.18-3.62,2.73,2.73,0,0,1,.17-1c.3-.78,1.25-1.08,2-1.31a4.31,4.31,0,0,0,2.18-1.31c.81-1.05.24-2.37.5-3.56" transform="translate(-843.03 -371.08)"/><path class="cls-1" d="M1068.46,398.05a4.75,4.75,0,0,0,.52-2.13,18.72,18.72,0,0,0-2.4-9.38,12.32,12.32,0,0,1-1.7-5.23c-.21-3.24.73-5.46,3.23-7.24a20.86,20.86,0,0,1,6.82-3,.4.4,0,0,1,.37.67,10.63,10.63,0,0,0-2.3,3.36,9.47,9.47,0,0,0-1,3,9.14,9.14,0,0,0,.62,3.86c.93,2.71,2.36,5.23,3.33,7.92s1.44,5.71.43,8.36a7.92,7.92,0,0,1-6.06,4.88,8.18,8.18,0,0,1-7.36-2.83c-.79-.95,2.56-1,2.63-1,1.25,0,2.1.07,2.84-1.31" transform="translate(-843.03 -371.08)"/><path class="cls-2" d="M1053.27,384.58a3.71,3.71,0,0,1-2,.77c-3.37.35-6.55-1.49-9.62-3a56.28,56.28,0,0,0-27.86-5.74,17.14,17.14,0,0,0-8.07,2c-3,1.79-5.12,5.09-8.39,6.14a8.58,8.58,0,0,1-9.22-3.07,6.15,6.15,0,0,1-.54-6c1.4-2.73,4.73-3.42,7.64-3.71a255,255,0,0,1,27.37-.76c8.63.08,17.44-.39,26,.23,2.43.17,4.35.7,5.33,3.25.9,2.35,1.44,8.14-.64,9.92" transform="translate(-843.03 -371.08)"/><path class="cls-1" d="M880.2,506.53c2,1.4,4,2.86,5.88,4.45.29.25.58.49.89.71s.66.44.74.83c.14.71-.55,1.05-1.07,1.34-2,1.13-3.91,2.28-5.8,3.53A61.7,61.7,0,0,1,875,521c-2.11,1.07-2.78-2-2.38-3.51a2.34,2.34,0,0,1,.89-1.31,2.58,2.58,0,0,1,.82-.39c.21-.07.65-.1.79-.27s-.06-.39-.15-.55c-.46-.81-1.28-1.39-1.58-2.29a2.43,2.43,0,0,1,.37-2.24,5.51,5.51,0,0,1,2.15-1.21.78.78,0,0,0,.26-.17c.51-.63-1.63-1.55-1.94-1.89a6.43,6.43,0,0,1-1.26-3.06c-.1-.46-.39-1.58.32-1.72a1.35,1.35,0,0,1,.86.21,50.16,50.16,0,0,1,6.06,3.93" transform="translate(-843.03 -371.08)"/><path class="cls-5" d="M865.73,517.8a4.12,4.12,0,0,1,2-2.55c.16-.1.36-.22.36-.41a.53.53,0,0,0-.26-.35,6.09,6.09,0,0,1-1.94-2.75,3.17,3.17,0,0,1-.13-1.92,1.78,1.78,0,0,1,.7-.94.73.73,0,0,0,.25-.93,3.67,3.67,0,0,1-.34-1.7,9.85,9.85,0,0,1,.48-2.52,3.65,3.65,0,0,1,.46-1.09.38.38,0,0,0-.24-.59,122.67,122.67,0,0,0-16-.12c-3.82.5-6.55,2.5-7.48,6.28s-.4,8.61,2.17,11.63c2,2.39,10.77,1.82,13.61,1.68.65,0,5.2.07,5.8-.2,1.19-.54.36-2.5.62-3.52" transform="translate(-843.03 -371.08)"/><path class="cls-1" d="M878.37,403.94c2.92-.3,8.19-.23,11.77,3.32,0,0,.74-6.78,6.33-9.48a3.91,3.91,0,0,1,5.42,2.25l4.2,12.79a4.23,4.23,0,0,1-2.59,5.3c-2.88,1.05-6.55,2.8-8.17,5.42a2.66,2.66,0,0,1-3.48.88c-3.06-1.62-8-3.84-10.77-3a2.53,2.53,0,0,1-3-1.23,34.71,34.71,0,0,1-3.58-12.49c-.24-2.23,2.53-3.61,3.89-3.75" transform="translate(-843.03 -371.08)"/><path class="cls-2" d="M864.38,555.12c-1.51-2.48-2.84-5.37-2.43-8.34,0,0,1.59.31,3.09-3.21s-3.62-6.58-6.11-8c-2.67-1.52-16.42-6.21-14.9,1.08,1.21,5.8,2.88,10.23,5.14,10.29a31.05,31.05,0,0,0-1.54,3.88,32,32,0,0,1-1.85,4c-.73,1.2-1.58,2.33-2.22,3.57a3.7,3.7,0,0,0,.31,4c1.87,2.58,7.82,14.36,9.73,19.52.25.67.86,1.48,1.58,1.48a1.48,1.48,0,0,0,1.37-.91c.48-1.15,1-2.3,1.45-3.44q1.9-4.51,4-9a49.14,49.14,0,0,1,3.25-6.23c.91-1.38,2-2.55,1.58-4.31s-1.57-3-2.42-4.4m-5.89,8.81a3.06,3.06,0,1,1-3-3,3,3,0,0,1,3,3" transform="translate(-843.03 -371.08)"/><path class="cls-1" d="M921.36,523.16c-1.56,0-3.12,0-4.67-.14a3.65,3.65,0,0,1-1.63-.38,2,2,0,0,1-1-1.56,2.6,2.6,0,0,1,1-2c1.58-1.52,3-3.23,4.68-4.62a2.23,2.23,0,0,1,2.14-.54,10.82,10.82,0,0,1,3.95,3.09c.92,1,2.6,2.43,2.62,3.9,0,2.19-2.83,2.36-4.4,2.32-.89,0-1.78,0-2.67-.05" transform="translate(-843.03 -371.08)"/><path class="cls-3" d="M902.31,523.17c-1.56,0-3.12,0-4.67-.13a3.65,3.65,0,0,1-1.63-.38,2,2,0,0,1-1-1.56,2.58,2.58,0,0,1,1-2c1.57-1.53,3-3.23,4.67-4.62a2.25,2.25,0,0,1,2.14-.55,10.92,10.92,0,0,1,4,3.09c.92,1,2.6,2.44,2.62,3.91,0,2.18-2.83,2.36-4.4,2.31l-2.67-.05" transform="translate(-843.03 -371.08)"/><path class="cls-2" d="M939.62,523.14c-1.56,0-3.12,0-4.67-.13a3.79,3.79,0,0,1-1.63-.38,2,2,0,0,1-1-1.57,2.58,2.58,0,0,1,1-2c1.57-1.52,3-3.23,4.67-4.62a2.27,2.27,0,0,1,2.14-.54,10.92,10.92,0,0,1,4,3.09c.92,1,2.6,2.44,2.62,3.9,0,2.19-2.83,2.37-4.4,2.32-.89,0-1.78,0-2.67-.05" transform="translate(-843.03 -371.08)"/><path class="cls-1" d="M921.2,509.84c-1.56,0-3.12,0-4.67-.13a3.79,3.79,0,0,1-1.63-.38,2,2,0,0,1-1-1.56,2.6,2.6,0,0,1,1-2c1.58-1.53,3-3.23,4.68-4.62a2.25,2.25,0,0,1,2.14-.55,10.92,10.92,0,0,1,3.95,3.09c.92,1,2.6,2.44,2.62,3.9,0,2.19-2.83,2.37-4.4,2.32l-2.67-.05" transform="translate(-843.03 -371.08)"/><path class="cls-3" d="M902.15,509.86c-1.56,0-3.12,0-4.67-.13a3.79,3.79,0,0,1-1.63-.38,2,2,0,0,1-1-1.56,2.58,2.58,0,0,1,1-2c1.57-1.53,3-3.24,4.67-4.63a2.27,2.27,0,0,1,2.14-.54,10.92,10.92,0,0,1,4,3.09c.92,1,2.61,2.44,2.62,3.9,0,2.19-2.83,2.37-4.4,2.32-.89,0-1.78,0-2.67-.05" transform="translate(-843.03 -371.08)"/><path class="cls-2" d="M939.46,509.83c-1.56,0-3.12,0-4.67-.14a3.78,3.78,0,0,1-1.63-.37,2,2,0,0,1-1-1.57,2.58,2.58,0,0,1,1-2c1.57-1.52,3-3.23,4.67-4.62a2.23,2.23,0,0,1,2.14-.54,10.82,10.82,0,0,1,3.95,3.09c.92,1,2.61,2.43,2.62,3.9,0,2.19-2.83,2.36-4.4,2.32-.89,0-1.78,0-2.67-.05" transform="translate(-843.03 -371.08)"/><path class="cls-3" d="M1043.31,555.54c-.9-.43-1.79-.86-2.66-1.32a2.37,2.37,0,0,1-.84-.66,1.28,1.28,0,0,1-.14-1.17,1.7,1.7,0,0,1,1.13-.89c1.33-.46,2.62-1.07,4-1.42a1.44,1.44,0,0,1,1.39.27,6.79,6.79,0,0,1,1.42,2.82c.25.83.83,2.1.43,3-.59,1.27-2.29.6-3.19.16l-1.53-.74" transform="translate(-843.03 -371.08)"/><path class="cls-3" d="M942.73,580c-.59.79-1.19,1.58-1.81,2.34a2.29,2.29,0,0,1-.8.69,1.31,1.31,0,0,1-1.19-.07,1.67,1.67,0,0,1-.68-1.27c-.2-1.39-.57-2.75-.66-4.15a1.42,1.42,0,0,1,.52-1.3,6.87,6.87,0,0,1,3.07-.86c.87-.09,2.24-.41,3,.13,1.15.81.18,2.35-.43,3.14q-.53.66-1,1.35" transform="translate(-843.03 -371.08)"/><path class="cls-3" d="M988.66,549.78c-1,.17-2,.34-2.94.46a2.36,2.36,0,0,1-1.06,0,1.3,1.3,0,0,1-.81-.87,1.68,1.68,0,0,1,.4-1.38c.82-1.14,1.5-2.37,2.41-3.45a1.45,1.45,0,0,1,1.29-.58,6.85,6.85,0,0,1,2.82,1.48c.69.53,1.9,1.23,2.08,2.15.26,1.37-1.52,1.81-2.51,2l-1.68.28" transform="translate(-843.03 -371.08)"/><path class="cls-4" d="M1007.83,650.06c-3.62,2.57-8.41,3-12.72,2.6-3.56-.32-9.21-1-10.51-5-.52-1.62.52-2.52,1.93-1.45,2.59,2,6.08,1.73,8.92.43,2.6-1.2,4.72-3.15,7.22-4.49,2.19-1.18,5.79-1.9,7.4.59s-.11,5.78-2.24,7.3" transform="translate(-843.03 -371.08)"/><path class="cls-5" d="M1026.31,424.23c7.65,6.87,9.69,16.5,13.32,25.6a3.19,3.19,0,0,0,.84,1.36c4.37,3.48,5.34-11.67,5.22-13.41A28.5,28.5,0,0,0,1027.18,413c-2.3-.83-14.25-4.94-13.78.15.34,3.7,5.67,6.14,8.45,7.78a29.1,29.1,0,0,1,4.46,3.26" transform="translate(-843.03 -371.08)"/><path class="cls-1" d="M996.13,518c-7.6,8.71-17.36,13.89-26.78,14.2-3.92.18-6.81-3.69-6.22-7.8.56-3.89,3.41-5.47,6.65-6a24,24,0,0,0,9.61-3.61c6-3.86,11.54-9.94,14.21-16.89,4.45-11.57.08-29.49-12.11-33.27-4.7-1.45-8.79-.07-13.31,1.23-5.81,1.66-11.31,3.24-16.84-1.07-4.38-3.41-5.13-9.35-5.86-15.1-1-7.56-2-15.38-11.09-17.19-10.5-2.08-15.37,7.62-18.13,15.1-3.15,8.58-9.67,15.65-18.9,12.17-5-1.88-8.7-6.08-13.52-8.31a18,18,0,0,0-15-.22c-5.81,2.47-10.14,8-11.9,14.34a22.78,22.78,0,0,0-.58,10.22c.73,3.92,3,7.65,2.41,11.8a7.08,7.08,0,0,1-4.81,5.68c-8.35,2.39-10.32-11.7-10.71-17.74a40.7,40.7,0,0,1,6.3-24.43c7.12-11,18.44-16.54,31.05-15.14,4.64.51,8.82,2.77,12.88,5.08,3.35,1.91,7.87,4.18,11.44,1.5s4.28-7.85,6.13-11.76c5.07-10.72,17-14.26,27.36-11.61a26.14,26.14,0,0,1,13.31,8,25.27,25.27,0,0,1,5.1,10.72c1.12,4.63.11,11.14,4.4,14.14,2.67,1.87,5.65.87,8.42-.11,9.09-3.22,19-1,26.33,5.46,9.28,8.14,11.64,20.8,12,30,.39,10.29-4,21.74-11.8,30.68" transform="translate(-843.03 -371.08)"/></svg>