<svg id="Layer_1" data-name="Layer 1" xmlns="http://www.w3.org/2000/svg" viewBox="0 0 687.25 140.67"><defs><style>.cls-1{fill:#fff;}</style></defs><path class="cls-1" d="M164.36,509.94a34.75,34.75,0,0,0,13.44-10.29,24.17,24.17,0,0,0,4.72-10.6,30.52,30.52,0,0,0,0-10.18,25,25,0,0,0-6.88-13.49,47.85,47.85,0,0,0-10.48-8c-5-2.93-10-5.72-15.06-8.53a55.21,55.21,0,0,1-13.83-10.55,30.74,30.74,0,0,1-7.37-12.3,15.26,15.26,0,0,1-.29-8.65,10.39,10.39,0,0,1,6.27-7,18,18,0,0,1,6.85-1.27,8.91,8.91,0,0,1,3.92.88,6,6,0,0,1,3,2.92,8.26,8.26,0,0,1,.8,5,23.44,23.44,0,0,1-1.24,5.15,16.24,16.24,0,0,0-.93,3.53,13.41,13.41,0,0,0,3.49,11.68,16.76,16.76,0,0,0,18,4.88c6-1.78,9.68-6.06,11-12.17a19.33,19.33,0,0,0,0-6.91,13,13,0,0,0-.46-2,22.34,22.34,0,0,0-6.22-9.78,34.44,34.44,0,0,0-14.28-7.72,55.48,55.48,0,0,0-8.86-1.72,50.55,50.55,0,0,0-18.34.95,26.2,26.2,0,0,0-5.75,1.9l.06,0-.88.35h0l-.12.09c-1.16.55-2.35,1-3.48,1.65a35.56,35.56,0,0,0-12,10.56,27.83,27.83,0,0,0-4.86,11.15,27.19,27.19,0,0,0,3.67,19.68,37.12,37.12,0,0,0,7.18,8.53,74.45,74.45,0,0,0,9.14,6.77,50,50,0,0,0,5.24,3.53,15,15,0,0,0,3.1,1.82l.85.57.32.17.38.22.33.16.4.28a1.06,1.06,0,0,0,.64.46h0l.61.34a.21.21,0,0,0,.21.15c.59.44,1.16.9,1.78,1.3,3.24,2.09,6.48,4.22,9.51,6.61a35.81,35.81,0,0,1,5.12,4.73,13.56,13.56,0,0,1,2.36,3.9,8.88,8.88,0,0,1-.31,7.42,14.07,14.07,0,0,1-4.45,5.05,20.19,20.19,0,0,1-7.32,3.36,19.82,19.82,0,0,1-11.44-.3,13.37,13.37,0,0,1-8-7.36,18.89,18.89,0,0,1-1.63-6.91,7.52,7.52,0,0,0-.59-3.37,1.63,1.63,0,0,0-.38-1.45h0a.45.45,0,0,1-.28-.5.22.22,0,0,0-.1-.22.66.66,0,0,1-.38-.72,7.33,7.33,0,0,0-5.48-3.6,7.62,7.62,0,0,0-8.6,6.68,15,15,0,0,0,1.11,7.69,29.31,29.31,0,0,0,12.52,14.42,2.59,2.59,0,0,0,1.18.46v0l.39.34a.84.84,0,0,0,.88.38l.68.37h.06l.62.31.05.08.09,0c.18.1.37.2.57.29s.13.14.25.08l1.2.48a.83.83,0,0,0,.91.25l.51.2a9,9,0,0,0,2.24.82,49.06,49.06,0,0,0,8.34,1.48,53,53,0,0,0,13.26-.46,49.69,49.69,0,0,0,13.2-3.93" transform="translate(-103.96 -375.19)"/><path class="cls-1" d="M450.38,515.05A30.66,30.66,0,0,0,466,506.84a26.47,26.47,0,0,0,5.92-9,37.72,37.72,0,0,0,2.67-14.47q0-40.36,0-80.72v-1.47a1.41,1.41,0,0,0-.4-1.18,14.79,14.79,0,0,0-3.4-.73,21.13,21.13,0,0,0-8.78.28,9.88,9.88,0,0,0-7.38,7,14,14,0,0,0-.5,4.16c0,10.13,0,20.25,0,30.38a50.69,50.69,0,0,1-1.37,12.33,27.71,27.71,0,0,1-3.2,7.76,12.76,12.76,0,0,1-4.44,4.56,6.68,6.68,0,0,1-7.63-.14,10.78,10.78,0,0,1-2.72-2.71,23.25,23.25,0,0,1-3.48-7.81,58.51,58.51,0,0,1-1.78-14.67c-.06-6,0-12.08,0-18.12a3.92,3.92,0,0,0-.18-1.95,14.8,14.8,0,0,0-5.43-.94c-.73-.06-1.46-.17-2.2-.17a16.76,16.76,0,0,0-7.35,1.43,9.44,9.44,0,0,0-4.91,5.43,15.88,15.88,0,0,0-.88,5.74c0,5.06-.13,10.12.12,15.18a40.22,40.22,0,0,0,3.8,15.91,25.26,25.26,0,0,0,10.32,11.35,10.32,10.32,0,0,0,.9.62,21.08,21.08,0,0,0,24.27-3.34,25.1,25.1,0,0,0,5.55-7.46c.1-.19.17-.46.48-.43.06,0,.16.05.16.08,0,.54.09,1.09.09,1.63,0,8.42,0,16.83,0,25.24,0,2.14-.13,4.27-.32,6.39a38.42,38.42,0,0,1-1.24,6.82,16.4,16.4,0,0,1-2.16,4.83,8.14,8.14,0,0,1-6.22,3.78,5,5,0,0,1-5.36-3.29,9.34,9.34,0,0,1-.39-5.38c.25-1.19.58-2.38.93-3.54a10.26,10.26,0,0,0,.2-5.07,12,12,0,0,0-12.33-9.23,6.11,6.11,0,0,0-3.67,1,9.84,9.84,0,0,0-6.8,7,12.46,12.46,0,0,0,.39,7.88,16.55,16.55,0,0,0,5.94,7.89,9.7,9.7,0,0,0,3.32,2.19l.12.07c.23.11.45.22.69.32v0c.37.21.72.45,1.11.64a31.58,31.58,0,0,0,9.19,2.6,37.26,37.26,0,0,0,12.85-.46" transform="translate(-103.96 -375.19)"/><path class="cls-1" d="M661.11,405.18l-.85.35-.11,0v.12a13.78,13.78,0,0,0-3.22,1.76,16.79,16.79,0,0,0-7.26,9.14,12.09,12.09,0,0,0-.18,6.69,11.43,11.43,0,0,0,11.63,8.3,5.77,5.77,0,0,0,3-.48c5.64-1.75,10.14-7.76,7.73-14.61a11,11,0,0,1-.5-2.5c-.51-6,5.47-9.26,9.38-8.4a10.76,10.76,0,0,1,7.34,5.07,15.46,15.46,0,0,1,1.07,14,10.8,10.8,0,0,1-4.06,5.31,18.36,18.36,0,0,1-5.34,2.44c-4.08,1.15-8.28,1.77-12.43,2.6a19,19,0,0,0-5.12,1.39l-.84.22s-.1-.07-.11-.06a.81.81,0,0,0-.16.16c-1.16.41-2.34.76-3.45,1.27a20.66,20.66,0,0,0-8.53,6.77,24.42,24.42,0,0,0-4.69,16.52,16.48,16.48,0,0,0,1.58,6,21.52,21.52,0,0,0,6.77,8,27.31,27.31,0,0,0,9.78,4.53,2.58,2.58,0,0,0,2,.2c.17.44.55.36.9.36a3.09,3.09,0,0,0,1.43.32,33,33,0,0,0,9.9-.6,22.52,22.52,0,0,0,13.38-8.78c.28-.39.48-.86,1.08-1a6.27,6.27,0,0,1,.3.64,11.74,11.74,0,0,0,8.15,7.78,22.45,22.45,0,0,0,9.33.65,14.6,14.6,0,0,0,3.93-.91,9.45,9.45,0,0,0,1.66-.81,1.28,1.28,0,0,0,.57-1.73,5.13,5.13,0,0,0-1.28-2,8.45,8.45,0,0,1-2.24-5.47q-.06-1.19-.06-2.37c0-10.55,0-21.1,0-31.65a35.58,35.58,0,0,0-2.47-13.4,28.18,28.18,0,0,0-11.57-13.59A37.84,37.84,0,0,0,680.15,402a41,41,0,0,0-17.94,2.53,2.34,2.34,0,0,0-1.1.63m29.6,28.17q0,9.7,0,19.4a26.11,26.11,0,0,1-2.57,11.32,18.89,18.89,0,0,1-6.52,7.79,11.05,11.05,0,0,1-5.11,1.94,10,10,0,0,1-9.34-4.09,14.87,14.87,0,0,1-2.95-11.9,17.23,17.23,0,0,1,4.84-9.44,48.15,48.15,0,0,1,8-6.41c2.44-1.65,4.9-3.27,7.28-5a20,20,0,0,0,5.86-6.24c0-.08.18-.13.47-.32Z" transform="translate(-103.96 -375.19)"/><path class="cls-1" d="M232,419a15.65,15.65,0,0,1,.91,10.36,12,12,0,0,1-7.6,9,33.42,33.42,0,0,1-6,1.78c-2.77.54-5.57,1-8.34,1.56-1,.2-2,.52-3,.78l-.63.23a4.84,4.84,0,0,0-2.32.58,24.71,24.71,0,0,0-7.06,3,19.82,19.82,0,0,0-6.7,6.65,25.65,25.65,0,0,0-3.74,11.15,18.68,18.68,0,0,0,5.05,15.1,25.37,25.37,0,0,0,13.21,7.49,2.27,2.27,0,0,0,.49.25,32.5,32.5,0,0,0,11.92.37,24.39,24.39,0,0,0,9.53-3.74,21.08,21.08,0,0,0,5.63-5.47c.22-.31.32-.81.87-.84a3.42,3.42,0,0,1,.72,1.45,11.43,11.43,0,0,0,6.49,6.39,20.92,20.92,0,0,0,12,1,15.05,15.05,0,0,0,4-1.32,1.49,1.49,0,0,0,.87-1.82,2.88,2.88,0,0,0-.61-1.31c-.29-.39-.64-.74-.95-1.12a7.63,7.63,0,0,1-1.8-3.94,41,41,0,0,1-.34-4.56c0-10.43,0-20.86,0-31.29a33,33,0,0,0-3.07-14.37A28.78,28.78,0,0,0,238.31,413a36.76,36.76,0,0,0-10.45-3.49,43.55,43.55,0,0,0-8.45-.76A45.56,45.56,0,0,0,209,410.15a11.2,11.2,0,0,0-3.59,1.34l-.5.15c0,.17-.12.22-.27.13a22.85,22.85,0,0,0-6.91,4.08,15.33,15.33,0,0,0-5,7.29,12.16,12.16,0,0,0,.07,7.88,11.48,11.48,0,0,0,13.4,7,5.51,5.51,0,0,0,1.08-.15,12.08,12.08,0,0,0,7.67-7.38,10.16,10.16,0,0,0,.53-4.68c-.17-1.41-.7-2.71-1-4.08a7.25,7.25,0,0,1,1.88-6.76c2.84-3.07,7-3.53,10.79-1.4A11.17,11.17,0,0,1,232,419m1.77,18.3c0,7.75.1,15.5,0,23.25a23.9,23.9,0,0,1-4.72,14,15.65,15.65,0,0,1-7,5.52,10,10,0,0,1-11.26-2.78,14.73,14.73,0,0,1-3.57-12.43,17.58,17.58,0,0,1,5.66-10.42,54.26,54.26,0,0,1,7.42-5.72c2.49-1.68,5.05-3.26,7.41-5.12a19.41,19.41,0,0,0,5.55-6c.08-.16.18-.3.27-.45Z" transform="translate(-103.96 -375.19)"/><path class="cls-1" d="M510,486.46a.46.46,0,0,0,.51.13,1.55,1.55,0,0,0,1,.37c1.34.16,2.68.36,4,.45a29.42,29.42,0,0,0,15.54-3.05,35,35,0,0,0,9.16-6.68,39.56,39.56,0,0,0,9.75-16.16,44.53,44.53,0,0,0,2-18,43.75,43.75,0,0,0-4.87-16.55,37,37,0,0,0-10.62-12.46,31.51,31.51,0,0,0-16.32-6.18,28,28,0,0,0-13.16,2.05h0l-.55.2-.4.19a3.83,3.83,0,0,0-1.76.86l-.53.27-.14,0-.07.12-.47.26H503l-.08.11-1.08.66-.67.28h0c-.09,0-.13,0-.14.14s-.27.19-.4.29a.26.26,0,0,0-.33.22,28.77,28.77,0,0,0-3.34,2.57,38,38,0,0,0-8.27,10.43,44.24,44.24,0,0,0-5.08,16.11,48.64,48.64,0,0,0-.25,6.39,42,42,0,0,0,1.8,11.51,39.73,39.73,0,0,0,6.94,13.61,31.65,31.65,0,0,0,7.87,7.35,13.18,13.18,0,0,0,3.47,2.13h-.05l.77.31a4.4,4.4,0,0,0,1.64.68l.09.12.16,0,.45.24.42.14a.14.14,0,0,0,.2.09l.78.28h-.06a3.77,3.77,0,0,0,2.17.6m9.46-69.57a15.18,15.18,0,0,1,2.89,2.54,27.6,27.6,0,0,1,4.86,8.35,60,60,0,0,1,3.88,16.32,79.48,79.48,0,0,1,.34,12.43A47.61,47.61,0,0,1,528.78,471a21.41,21.41,0,0,1-3.06,5.81c-.34.42-.71.83-1.09,1.23a6.67,6.67,0,0,1-9.33.47,17.54,17.54,0,0,1-3.56-3.93,39.35,39.35,0,0,1-4-8.4,67.49,67.49,0,0,1-2.93-12.61,78.22,78.22,0,0,1-.63-10.94,46,46,0,0,1,.29-6.42c.59-5.22,1.52-10.37,4.09-15.07a15.38,15.38,0,0,1,2.81-3.61,6.57,6.57,0,0,1,8.16-.68" transform="translate(-103.96 -375.19)"/><path class="cls-1" d="M765.85,415.16c-.79,5.11,1.8,11.39,8.53,12.9a9.49,9.49,0,0,1,2.72,1.08,10.39,10.39,0,0,1,4.44,5.66,27,27,0,0,1,1.5,8.07,64.64,64.64,0,0,1-1.77,16.69A90.84,90.84,0,0,1,777.16,473a59.2,59.2,0,0,1-5.55,11.12,23.4,23.4,0,0,1-3.71,4.53,7,7,0,0,1-3.66,2,5.74,5.74,0,0,1-5.16-1.87,14.65,14.65,0,0,1-2.69-3.91,53.36,53.36,0,0,1-3.59-10.55q-1.38-5.4-2.42-10.88c-1.2-6.41-2.56-12.78-3.81-19.19-1.06-5.38-2-10.78-3.09-16.16a15,15,0,0,0-3.38-7,4.43,4.43,0,0,0-1.77-1.55l-.39-.3a.36.36,0,0,1-.38-.29,14.43,14.43,0,0,0-5.36-2.33,27.12,27.12,0,0,0-11.52.16,2.69,2.69,0,0,0-1.56.64,3.79,3.79,0,0,0,0,.67q.84,4.5,1.72,9c.73,3.76,1.51,7.52,2.23,11.28.85,4.37,1.64,8.73,2.49,13.1.88,4.54,1.83,9.07,2.67,13.62a91,91,0,0,0,3.83,14.45A44.09,44.09,0,0,0,737.25,490a4.88,4.88,0,0,0,1.07,1.56v-.06a.28.28,0,0,0,.17.27.32.32,0,0,0,.21.24l0,.1.09,0a4.15,4.15,0,0,1,.27.32,18.4,18.4,0,0,0,5.06,4.85h-.06l.6.33a.16.16,0,0,0,.16.14,4.88,4.88,0,0,0,.55.47,20.86,20.86,0,0,0,7.91,2.89,20.46,20.46,0,0,0,7.36-.13,19,19,0,0,0,7.35-3.67c4.54-3.54,7.77-8.14,10.5-13.09a86.51,86.51,0,0,0,6.31-14.59,130.59,130.59,0,0,0,4.6-18.06,106.68,106.68,0,0,0,1.76-16.72,71,71,0,0,0-.78-14,30.38,30.38,0,0,0-3-9.36,10.6,10.6,0,0,0-7.17-5.56c-.48-.11-1-.21-1.45-.27a11.34,11.34,0,0,0-8.68,2.28,10.84,10.84,0,0,0-4.21,7.28" transform="translate(-103.96 -375.19)"/><path class="cls-1" d="M265,490.8a18,18,0,0,0,.71,5.41,8.88,8.88,0,0,0,4.12,5.19,15.77,15.77,0,0,0,9.43,1.82,17.67,17.67,0,0,0,6.48-1.08,6.27,6.27,0,0,0,.13-2.16q0-22.32,0-44.65a27.16,27.16,0,0,1,.8-7.07,20.4,20.4,0,0,1,3.51-7.39,14,14,0,0,1,4.73-4,9,9,0,0,1,7.15-.71,10.92,10.92,0,0,1,4.35,2.68,17,17,0,0,1,3.24,4.64A37.06,37.06,0,0,1,313,455.22a54.7,54.7,0,0,1,.42,7.67v27.82a19.19,19.19,0,0,0,.51,4.53c1,4,3.6,6.4,7.54,7.47s8.06.61,12.05-.28a2.43,2.43,0,0,0,.6-.32,5,5,0,0,0,.17-2.05q0-20.4,0-40.8a52.29,52.29,0,0,0-.64-8.38,33.22,33.22,0,0,0-5.86-14.64,27,27,0,0,0-16.86-10.65,26,26,0,0,0-15.71,1.72,18,18,0,0,0-7.05,5.15.38.38,0,0,0-.23.25,1,1,0,0,0-.54.58l0,0c-.49.29-.6,1.07-1.44,1.15v-2.06q0-21.39,0-42.8a20.5,20.5,0,0,0-.42-4.35,10.74,10.74,0,0,0-6.2-8.09.31.31,0,0,0-.25-.14.37.37,0,0,1-.48-.2.58.58,0,0,0-.35-.11.29.29,0,0,1-.4-.17l-1-.39a.33.33,0,0,0-.44-.1,22.18,22.18,0,0,0-12.38.13,8.24,8.24,0,0,0-2,.9,1.37,1.37,0,0,0-.68,1.86,4.84,4.84,0,0,0,1.19,1.82,9.27,9.27,0,0,1,2.42,6c0,.8.08,1.59.08,2.38q0,17.66,0,35.31,0,33.19,0,66.41" transform="translate(-103.96 -375.19)"/><path class="cls-1" d="M567.18,401.06c0,.12,0,.23-.07.35a1.83,1.83,0,0,0-.28,1.25c-.24.66-.48,1.31-.71,2l-2.24,3.63c-.09.1-.17.21-.25.31h-.11l0,.11a.39.39,0,0,0-.23.24l-.3.24,0,0-.53.55a12.3,12.3,0,0,1-6.17,2.7,3.61,3.61,0,0,0-1,.31,2.55,2.55,0,0,0-1.63,2.78,2.61,2.61,0,0,0,2.5,2.28c.55,0,1.11,0,1.66,0a4.47,4.47,0,0,1,2,.2,6.61,6.61,0,0,1,.14,2.17q0,19.39,0,38.78c0,2.63.05,5.25.29,7.86a30.12,30.12,0,0,0,2.21,9.2,1,1,0,0,0,0,.36,27.53,27.53,0,0,0,10.72,13.15,37.06,37.06,0,0,0,16.09,5.42,6.2,6.2,0,0,0,1.29,0,2.35,2.35,0,0,0,2.18-2.12,2.42,2.42,0,0,0-1.94-2.88,11,11,0,0,1-4.89-2.44,14.11,14.11,0,0,1-3.94-6.28,22.56,22.56,0,0,1-1.11-7.38q0-14.91,0-29.83,0-12.07,0-24.15A5.8,5.8,0,0,1,581,418a2.41,2.41,0,0,1,1.37-.23c.55,0,1.11,0,1.66,0a2.55,2.55,0,0,0,2.49-2.46,2.43,2.43,0,0,0-2.34-2.58c-.48-.06-1,0-1.47-.05a4.58,4.58,0,0,1-1.55-.11,1.83,1.83,0,0,1-.25-1.31c0-1.65,0-3.3,0-4.94a24.18,24.18,0,0,0-.4-4.73,11.78,11.78,0,0,0-4.67-7.82,12.54,12.54,0,0,0-7.09-2.25c-.25,0-.47.13-.75.47a43.58,43.58,0,0,1-.79,9.1" transform="translate(-103.96 -375.19)"/><path class="cls-1" d="M624,489.77a27.14,27.14,0,0,0,9.32-4.7,16.74,16.74,0,0,0,6.61-16,16,16,0,0,0-1.12-4.42,19.4,19.4,0,0,0-6.15-7.63,71.09,71.09,0,0,0-9.06-5.65,85.47,85.47,0,0,1-9.45-5.69,27.55,27.55,0,0,1-7.21-7.74,14.15,14.15,0,0,1-2.25-6.7c-.13-2.88.77-5.32,3.37-6.86a9.56,9.56,0,0,1,6.4-1.19,4.27,4.27,0,0,1,3.87,4.23,7.88,7.88,0,0,1-.09,2,10,10,0,0,1-.6,2.3,11.15,11.15,0,0,0-.69,2.83,8.46,8.46,0,0,0,1.87,6.86,11.13,11.13,0,0,0,9.4,4.15,10.44,10.44,0,0,0,9.82-8.87,12.67,12.67,0,0,0-3.1-10.2,18.37,18.37,0,0,0-5.75-4.52,29.37,29.37,0,0,0-10.57-3c-5.46-.56-10.83-.23-16,2a6.89,6.89,0,0,0-2.07,1.11,21.57,21.57,0,0,0-8.26,7.13,17.56,17.56,0,0,0-3.28,8.8,18.34,18.34,0,0,0,4.46,13.53,32.91,32.91,0,0,0,8.07,6.85h0l.36.24c0,.12.09.17.21.13l.53.35.61.45,0,0c2.88,1.84,5.77,3.68,8.64,5.55a56.6,56.6,0,0,1,7.1,5.22,14.5,14.5,0,0,1,2.52,2.89,6.05,6.05,0,0,1-.32,7.31,9.39,9.39,0,0,1-2,1.91,13.77,13.77,0,0,1-10.65,2.45,8.67,8.67,0,0,1-6.7-5.13,12.45,12.45,0,0,1-1.1-4.4,6.18,6.18,0,0,0-.71-3.32l0-.09a.36.36,0,0,1-.25-.44,3.55,3.55,0,0,0-1.38-1.66,4.93,4.93,0,0,0-7.45,1.87,5.82,5.82,0,0,0-.5,2.12,11,11,0,0,0,1.44,5.78,17.25,17.25,0,0,0,7.3,7.72,7.44,7.44,0,0,0,2.67,1.47l-.05,0a28.94,28.94,0,0,0,11.45,2.47A33.36,33.36,0,0,0,624,489.77" transform="translate(-103.96 -375.19)"/><path class="cls-1" d="M400,422.28a2.61,2.61,0,0,0,2.32-2.63,2.54,2.54,0,0,0-2.33-2.43c-.67-.09-1.35,0-2-.06-.41,0-.87.08-1.2-.32a5.13,5.13,0,0,1-.12-1.79c0-1.84,0-3.66,0-5.5a17.3,17.3,0,0,0-.87-5.57A11.47,11.47,0,0,0,384,396.12a10.11,10.11,0,0,0-.21,2.6,4.59,4.59,0,0,0-.09,1.95c0,.23,0,.47-.05.71-.11,1.17-.3,2.35-.47,3.52l-.1.15v.18c-.08.37-.14.74-.22,1.11-.66,1.58-1.32,3.15-2,4.73-.09.14-.17.3-.26.45a4.75,4.75,0,0,0-1.14,1.53c-.14.13-.28.24-.41.37a11.41,11.41,0,0,1-6.39,3.4,9.89,9.89,0,0,0-1.43.33,2.63,2.63,0,0,0,.42,5.12c.85.11,1.72,0,2.58.08.46,0,1-.15,1.46.39,0,.63,0,1.35,0,2.07q0,21.22,0,42.44a36.19,36.19,0,0,0,1.34,9.93,21.44,21.44,0,0,0,2.31,5.93,4,4,0,0,0,.13.52,26.84,26.84,0,0,0,7.43,9c6,4.71,13.1,6.53,20.6,7.09a.9.9,0,0,0,.84-.23,11.92,11.92,0,0,0-.1-4.66l-2-.42a9.86,9.86,0,0,1-5.46-3.18,14.76,14.76,0,0,1-3-5.21,26.21,26.21,0,0,1-1.26-8.47q0-26.43,0-52.89c0-.36,0-.73,0-1.09s-.06-.74.3-1.05a4,4,0,0,1,1.59-.15,14.33,14.33,0,0,0,1.47-.06" transform="translate(-103.96 -375.19)"/><path class="cls-1" d="M366.45,497.15a3.6,3.6,0,0,0-1.14-1.84,8.42,8.42,0,0,1-2.35-4.67,15.4,15.4,0,0,1-.14-2.55q0-23,0-45.93c0-1-.06-2-.05-2.93a12.07,12.07,0,0,0-.75-4.13,10.36,10.36,0,0,0-4.89-6,16.79,16.79,0,0,0-10.52-1.87,14,14,0,0,0-4.88.84,6.6,6.6,0,0,0-1.76,1,1.11,1.11,0,0,0-.42,1.3,4.17,4.17,0,0,0,1.12,1.85,8.8,8.8,0,0,1,2.29,4.89,22.74,22.74,0,0,1,.17,2.73q0,23,0,46.07a31.72,31.72,0,0,0,.12,3.65,10.1,10.1,0,0,0,2.6,6.29,5.57,5.57,0,0,0,.52.75,11.5,11.5,0,0,0,5.31,3.15,21.34,21.34,0,0,0,12.19-.1,8.76,8.76,0,0,0,1.85-.82,1.35,1.35,0,0,0,.73-1.7" transform="translate(-103.96 -375.19)"/><path class="cls-1" d="M362.58,410.26a9.45,9.45,0,0,0-7.38-7.56,8.57,8.57,0,0,0-8.23,1.87c-4.88,3.14-5.34,11.62,0,15.28v.1l.1,0,0,0c3,2.22,6.29,2.38,9.75,1.11a9.58,9.58,0,0,0,5.74-10.87" transform="translate(-103.96 -375.19)"/></svg>